<svg width="62" height="63" viewBox="0 0 62 63" fill="none" xmlns="http://www.w3.org/2000/svg">
<g clip-path="url(#clip0_1_1607)">
<path d="M22.5516 31.9054H20.585V22.3614C20.585 18.0936 17.8352 14.438 13.6931 13.4116C13.2928 13.4116 12.9099 12.9974 12.9099 12.6013C12.9099 12.2051 13.3102 11.7909 13.6931 11.5928C15.2594 10.7825 16.4429 9.16183 16.4429 7.32506C16.4429 4.67795 14.2848 2.44501 11.7265 2.44501C9.16813 2.44501 7.20151 4.67795 7.20151 7.32506C7.20151 9.16183 8.19352 10.9806 9.9513 11.5928C10.3516 11.7909 10.543 12.2051 10.543 12.6013C10.3516 13.0154 10.1427 13.4116 9.75986 13.6097C5.82662 14.6181 2.86799 18.2917 2.86799 22.5594V31.9054H0.901367V22.3614C0.901367 17.8955 3.45971 14.0239 7.20151 12.2051C6.01806 10.9806 5.23489 9.16183 5.23489 7.32506C5.23489 3.45343 8.17612 0.410156 11.7265 0.410156C15.2768 0.410156 18.4095 3.45343 18.4095 7.32506C18.4095 9.16183 17.6263 10.9806 16.2514 12.4032C19.9932 14.24 22.5516 18.0936 22.5516 22.5594V31.9054Z" fill="#07D68B"/>
<path d="M61.9014 62.4101H59.9347V52.8661C59.9347 48.5983 57.185 44.9428 53.0429 43.9163C52.6426 43.9163 52.2597 43.5022 52.2597 43.106C52.2597 42.7098 52.4512 42.2957 52.8514 42.0976C54.4178 41.2872 55.6012 39.6666 55.6012 37.8298C55.6012 35.1827 53.4432 32.9497 50.8848 32.9497C48.3265 32.9497 46.1684 35.1827 46.1684 37.8298C46.1684 39.6666 47.1604 41.4853 48.9182 42.0976C49.3185 42.2957 49.5099 42.7098 49.5099 43.106C49.5099 43.5022 49.1096 43.9163 48.7268 43.9163C44.7935 44.9248 41.8349 48.5983 41.8349 52.8661V62.4101H39.8683V52.8661C39.8683 48.4002 42.4266 44.5286 46.1684 42.7098C44.7935 41.4853 44.0104 39.6666 44.0104 37.6317C44.0104 33.9762 46.969 30.7168 50.6934 30.7168C54.4178 30.7168 57.3764 33.7601 57.3764 37.6317C57.3764 39.4685 56.5932 41.2872 55.2183 42.7098C58.9601 44.5466 61.5185 48.4002 61.5185 52.8661V62.4101H61.9188H61.9014Z" fill="#07D68B"/>
<path d="M37.3099 55.2791H19.593C14.6677 55.2791 10.7345 51.2094 10.7345 46.1313V33.9402H12.7011V46.1313C12.7011 49.9849 15.8512 53.2443 19.593 53.2443H37.3099V55.2791Z" fill="#07D68B"/>
<path d="M17.0346 40.8551L11.7265 35.3628L6.60979 40.8551L5.23489 39.4325L11.7265 32.5176L18.4095 39.4325L17.0346 40.8551Z" fill="#07D68B"/>
<path d="M52.0683 27.8536H50.1017V15.6625C50.1017 11.8089 46.9516 8.5495 43.2098 8.5495H21.5596V6.51465H43.2098C48.135 6.51465 52.0683 10.5844 52.0683 15.6625V27.8536Z" fill="#07D68B"/>
<path d="M51.0763 29.2764L44.5847 22.5596L45.9596 21.137L51.0763 26.4312L56.4018 21.137L57.7767 22.5596L51.0763 29.2764Z" fill="#07D68B"/>
</g>
<defs>
<clipPath id="clip0_1_1607">
<rect width="61" height="62" fill="white" transform="translate(0.901367 0.410156)"/>
</clipPath>
</defs>
</svg>
