<svg width="47" height="61" viewBox="0 0 47 61" fill="none" xmlns="http://www.w3.org/2000/svg">
<g clip-path="url(#clip0_1_1582)">
<path d="M9.26244 2.57862V16.8618C9.26244 25.0876 15.5994 31.7901 23.366 31.7901C31.1327 31.7901 37.5756 25.0876 37.5756 16.8618V2.57862H9.26244ZM23.4543 33.9585C14.452 33.9585 7.1972 26.2704 7.1972 16.8618V0.410156H39.6055V16.8618C39.6055 26.3062 32.3507 33.9585 23.4543 33.9585Z" fill="#07D68B"/>
<path d="M39.6055 5.21309V16.9694C42.3062 16.4496 44.3714 13.9765 44.3714 10.9837V5.17725H39.6055V5.21309ZM38.5994 19.2812H37.5756V3.00879H46.419V10.9837C46.419 15.5357 42.9063 19.2274 38.5994 19.2274V19.2812Z" fill="#07D68B"/>
<path d="M2.44895 5.17725V10.9658C2.44895 13.9586 4.49653 16.4497 7.19722 16.9514V5.17725H2.44895ZM9.26246 19.2454H8.23867C3.91403 19.2454 0.401367 15.5357 0.401367 11.0016V3.00879H9.26246V19.2274V19.2454Z" fill="#07D68B"/>
<path d="M21.2655 49.2274H25.5372V33.9228H21.2655V49.2274ZM27.5848 51.3959H19.218V31.7722H27.5848V51.4138V51.3959Z" fill="#07D68B"/>
<path d="M18.759 51.3959C16.9762 51.3959 15.5464 52.9371 15.5464 54.8009C15.5464 56.6647 17.0115 58.2059 18.759 58.2059H28.0437C29.8265 58.2059 31.2563 56.6647 31.2563 54.8009C31.2563 52.9371 29.8089 51.3959 28.0437 51.3959H18.759ZM28.0437 60.3923H18.759C15.8465 60.3923 13.4988 57.9013 13.4988 54.8188C13.4988 51.7364 15.8642 49.2454 18.759 49.2454H28.0437C30.9562 49.2454 33.3039 51.7543 33.3039 54.8188C33.3039 57.8834 30.9386 60.3923 28.0437 60.3923Z" fill="#07D68B"/>
<path d="M23.4014 17.1484L25.9608 18.5821L25.4666 15.5714L27.5318 13.4208L24.6546 12.9907L23.3661 10.2309L22.0775 12.9907L19.2003 13.4208L21.2655 15.5714L20.7713 18.5821L23.3308 17.1484H23.3661H23.4014ZM28.6968 22.5427L23.4014 19.5857L18.1059 22.5427L19.112 16.324L14.8227 11.9154L20.736 11.0015L23.3837 5.33838L26.0314 11.0015L31.9271 11.9154L27.6377 16.324L28.6439 22.5427H28.6792H28.6968Z" fill="#07D68B"/>
</g>
<defs>
<clipPath id="clip0_1_1582">
<rect width="46" height="60" fill="white" transform="translate(0.401367 0.410156)"/>
</clipPath>
</defs>
</svg>
