<svg width="93" height="93" viewBox="0 0 93 93" fill="none" xmlns="http://www.w3.org/2000/svg">
<g filter="url(#filter0_d_1_1745)">
<rect x="4.40137" y="0.034668" width="84" height="84" rx="42" fill="#07D68B"/>
<rect x="4.90137" y="0.534668" width="83" height="83" rx="41.5" stroke="#07D68B"/>
</g>
<g clip-path="url(#clip0_1_1745)">
<path fill-rule="evenodd" clip-rule="evenodd" d="M54.3275 50.7559L47.9809 44.5347L46.4014 46.0864L52.748 52.322L54.3275 50.7559ZM46.4014 42.9829L40.0547 36.7473L38.4752 38.3134L44.8219 44.5347L46.4014 42.9829ZM37.1542 37.0059L36.3644 38.0548L33.9809 40.3824L32.4014 42.7243L31.6116 45.0519L31.3388 47.1352V49.2042L31.8701 51.0146L33.4639 55.1669L33.9809 56.7329L35.3019 60.3536L35.8332 63.4715L36.3644 66.072L36.106 68.141V69.9657L35.8332 71.0002L35.3019 72.0347L36.3644 71.0002L38.4752 68.3996L40.0547 66.072L40.8588 63.9887L41.3757 61.9197L41.1173 59.8364L40.586 57.7674L39.265 53.6151L38.4752 52.322L37.427 48.687L36.6229 45.5692L36.3644 42.9829V40.641L36.6229 39.0893L36.8957 38.0548L37.1542 37.0059ZM23.9439 56.4743L28.4383 60.6266L30.0178 59.3192L25.5378 54.9082L23.9439 56.4743ZM33.7224 62.9542L31.3388 60.6266L30.0178 62.1783L34.2537 66.3306L33.7224 62.9542ZM38.4752 42.7243L39.0065 46.0864L41.1173 48.1697L42.6968 46.8766L38.4752 42.7243ZM47.4639 54.391L49.0434 53.0979L44.0178 48.1697L42.6968 49.7215L47.4639 54.391L44.5491 53.8737L41.1173 53.0979L42.4383 56.2157L43.228 59.3192L45.6116 59.0605L47.7224 58.2847L50.3644 56.7329L53.0065 54.391L54.0547 53.6151H53.7962L52.4752 54.1324L50.3644 54.391H47.4639ZM29.228 49.4628L27.1173 49.7215L24.748 50.4973L22.106 52.0634L19.4639 54.391L18.4014 55.4255L19.1911 55.1669L21.5747 54.6496L23.427 54.391L25.7962 54.6496L28.4383 54.9082L31.3388 55.6841L30.2906 52.5806L29.228 49.4628ZM57.5009 17.0347L56.4383 18.0692L54.3275 20.6697L52.748 22.9973L51.9439 25.0806L51.427 27.1496L51.6855 29.2329L52.2168 31.3019L53.5378 35.4542L54.3275 36.7473L55.3757 40.3824L56.1798 43.5002L56.4383 46.0864V48.4283L56.1798 49.9801L55.907 51.0146L55.6485 52.0634L56.4383 51.0146L58.8219 48.687L60.4014 46.345L61.1911 44.0174L61.4639 41.9341V39.8651L60.9327 38.0548L59.3388 33.9025L58.8219 32.3364L57.5009 28.7157L56.9696 25.5979L56.4383 22.9973L56.6968 20.9283V19.1036L56.9696 18.0692L57.5009 17.0347ZM45.3388 34.6783L48.2537 35.1956L51.6855 35.9715L50.3644 32.8536L49.5747 29.7502H49.3019L47.1911 30.0088L44.8219 30.7847L42.4383 32.3364L39.7962 34.6783L38.748 35.4542L40.0547 35.1956L41.6485 34.6783H45.3388L43.7593 35.9715L48.785 40.8996L50.106 39.3479L45.3388 34.6783ZM53.7962 42.9829L51.6855 40.8996L50.106 42.1927L54.3275 46.345L53.7962 42.9829ZM69.3757 34.6783L65.6855 34.4197L63.8332 33.9025L61.4639 33.3852L62.785 36.4887L63.5747 39.6065L65.6855 39.3479L68.0547 38.572L70.6968 37.0059L73.3388 34.6783L74.4014 33.6439L73.0803 34.1611L71.5009 34.4197L69.3757 34.6783ZM58.8219 22.7387L59.0803 26.1151L61.4639 28.4427L62.785 26.891L58.8219 22.7387ZM67.265 34.1611L62.785 29.7502L64.3644 28.4427L68.8588 32.595L67.265 34.1611Z" fill="white"/>
</g>
<defs>
<filter id="filter0_d_1_1745" x="0.401367" y="0.034668" width="92" height="92" filterUnits="userSpaceOnUse" color-interpolation-filters="sRGB">
<feFlood flood-opacity="0" result="BackgroundImageFix"/>
<feColorMatrix in="SourceAlpha" type="matrix" values="0 0 0 0 0 0 0 0 0 0 0 0 0 0 0 0 0 0 127 0" result="hardAlpha"/>
<feOffset dy="4"/>
<feGaussianBlur stdDeviation="2"/>
<feComposite in2="hardAlpha" operator="out"/>
<feColorMatrix type="matrix" values="0 0 0 0 0 0 0 0 0 0 0 0 0 0 0 0 0 0 0.25 0"/>
<feBlend mode="normal" in2="BackgroundImageFix" result="effect1_dropShadow_1_1745"/>
<feBlend mode="normal" in="SourceGraphic" in2="effect1_dropShadow_1_1745" result="shape"/>
</filter>
<clipPath id="clip0_1_1745">
<rect width="56" height="55" fill="white" transform="translate(18.4014 17.0347)"/>
</clipPath>
</defs>
</svg>
