<svg width="145" height="283" viewBox="0 0 145 283" fill="none" xmlns="http://www.w3.org/2000/svg">
<path d="M2.50025 277.443C3.77341 277.443 4.79193 278.462 4.79193 279.735C4.79193 281.009 3.77341 282.027 2.50025 282.027C1.2271 282.027 0.208578 281.009 0.208578 279.735C0.208578 278.462 1.2271 277.443 2.50025 277.443Z" fill="#07D68B" fill-opacity="0.7"/>
<path d="M2.50025 256.053C3.77341 256.053 4.79193 257.072 4.79193 258.345C4.79193 259.619 3.77341 260.637 2.50025 260.637C1.2271 260.637 0.208578 259.619 0.208578 258.345C0.208578 257.072 1.2271 256.053 2.50025 256.053Z" fill="#07D68B" fill-opacity="0.7"/>
<path d="M2.50025 234.918C3.77341 234.918 4.79193 235.937 4.79193 237.21C4.79193 238.484 3.77341 239.502 2.50025 239.502C1.2271 239.502 0.208578 238.484 0.208578 237.21C0.208578 235.937 1.2271 234.918 2.50025 234.918Z" fill="#07D68B" fill-opacity="0.7"/>
<path d="M2.50025 213.529C3.77341 213.529 4.79193 214.548 4.79193 215.821C4.79193 217.094 3.77341 218.113 2.50025 218.113C1.2271 218.113 0.208578 217.094 0.208578 215.821C0.208578 214.548 1.2271 213.529 2.50025 213.529Z" fill="#07D68B" fill-opacity="0.7"/>
<path d="M2.50025 192.394C3.77341 192.394 4.79193 193.413 4.79193 194.686C4.79193 195.96 3.77341 196.978 2.50025 196.978C1.2271 196.978 0.208578 195.96 0.208578 194.686C0.208578 193.413 1.2271 192.394 2.50025 192.394Z" fill="#07D68B" fill-opacity="0.7"/>
<path d="M0.208578 173.297C0.208578 174.563 1.2346 175.589 2.50025 175.589C3.76591 175.589 4.79193 174.563 4.79193 173.297C4.79193 172.031 3.76591 171.005 2.50025 171.005C1.2346 171.005 0.208578 172.031 0.208578 173.297Z" fill="#07D68B" fill-opacity="0.7"/>
<path d="M2.50025 149.87C3.77341 149.87 4.79193 150.889 4.79193 152.162C4.79193 153.435 3.77341 154.454 2.50025 154.454C1.2271 154.454 0.208578 153.435 0.208578 152.162C0.208578 150.889 1.2271 149.87 2.50025 149.87Z" fill="#07D68B" fill-opacity="0.7"/>
<path d="M2.50032 128.481C3.77347 128.481 4.79199 129.5 4.79199 130.773C4.79199 132.046 3.77347 133.065 2.50032 133.065C1.22716 133.065 0.208639 132.046 0.208639 130.773C0.208639 129.5 1.22716 128.481 2.50032 128.481Z" fill="#07D68B" fill-opacity="0.7"/>
<path d="M2.50032 107.346C3.77347 107.346 4.79199 108.364 4.79199 109.638C4.79199 110.911 3.77347 111.93 2.50032 111.93C1.22716 111.93 0.208639 110.911 0.208639 109.638C0.208639 108.364 1.22716 107.346 2.50032 107.346Z" fill="#07D68B" fill-opacity="0.7"/>
<path d="M2.50025 85.956C3.77341 85.956 4.79193 86.9747 4.79193 88.248C4.79193 89.5214 3.77341 90.5401 2.50025 90.5401C1.2271 90.5401 0.208578 89.5214 0.208578 88.248C0.208578 86.9747 1.2271 85.956 2.50025 85.956Z" fill="#07D68B" fill-opacity="0.7"/>
<path d="M2.50025 64.8218C3.77341 64.8218 4.79193 65.8406 4.79193 67.1139C4.79193 68.3873 3.77341 69.406 2.50025 69.406C1.2271 69.406 0.208578 68.3873 0.208578 67.1139C0.208578 65.8406 1.2271 64.8218 2.50025 64.8218Z" fill="#07D68B" fill-opacity="0.7"/>
<path d="M2.50025 43.4319C3.77341 43.4319 4.79193 44.4506 4.79193 45.7239C4.79193 46.9973 3.77341 48.016 2.50025 48.016C1.2271 48.016 0.208578 46.9973 0.208578 45.7239C0.208578 44.4506 1.2271 43.4319 2.50025 43.4319Z" fill="#07D68B" fill-opacity="0.7"/>
<path d="M2.50025 22.2971C3.77341 22.2971 4.79193 23.3157 4.79193 24.5891C4.79193 25.8625 3.77341 26.8812 2.50025 26.8812C1.2271 26.8812 0.208578 25.8625 0.208578 24.5891C0.208578 23.3157 1.2271 22.2971 2.50025 22.2971Z" fill="#07D68B" fill-opacity="0.7"/>
<path d="M2.50025 0.907837C3.77341 0.907837 4.79193 1.92651 4.79193 3.19988C4.79193 4.47324 3.77341 5.49192 2.50025 5.49192C1.2271 5.49192 0.208578 4.47324 0.208578 3.19988C0.208578 1.92651 1.2271 0.907837 2.50025 0.907837Z" fill="#07D68B" fill-opacity="0.7"/>
<path d="M19.8159 277.443C21.089 277.443 22.1075 278.462 22.1075 279.735C22.1075 281.009 21.089 282.027 19.8159 282.027C18.5427 282.027 17.5242 281.009 17.5242 279.735C17.5242 278.462 18.5427 277.443 19.8159 277.443Z" fill="#07D68B" fill-opacity="0.7"/>
<path d="M19.8159 256.053C21.089 256.053 22.1075 257.072 22.1075 258.345C22.1075 259.619 21.089 260.637 19.8159 260.637C18.5427 260.637 17.5242 259.619 17.5242 258.345C17.5242 257.072 18.5427 256.053 19.8159 256.053Z" fill="#07D68B" fill-opacity="0.7"/>
<path d="M19.8159 234.918C21.089 234.918 22.1075 235.937 22.1075 237.21C22.1075 238.484 21.089 239.502 19.8159 239.502C18.5427 239.502 17.5242 238.484 17.5242 237.21C17.5242 235.937 18.5427 234.918 19.8159 234.918Z" fill="#07D68B" fill-opacity="0.7"/>
<path d="M19.8159 213.529C21.089 213.529 22.1075 214.548 22.1075 215.821C22.1075 217.094 21.089 218.113 19.8159 218.113C18.5427 218.113 17.5242 217.094 17.5242 215.821C17.5242 214.548 18.5427 213.529 19.8159 213.529Z" fill="#07D68B" fill-opacity="0.7"/>
<path d="M19.8159 192.394C21.089 192.394 22.1075 193.413 22.1075 194.686C22.1075 195.96 21.089 196.978 19.8159 196.978C18.5427 196.978 17.5242 195.96 17.5242 194.686C17.5242 193.413 18.5427 192.394 19.8159 192.394Z" fill="#07D68B" fill-opacity="0.7"/>
<path d="M19.8159 171.005C21.089 171.005 22.1075 172.024 22.1075 173.297C22.1075 174.571 21.089 175.589 19.8159 175.589C18.5427 175.589 17.5242 174.571 17.5242 173.297C17.5242 172.024 18.5427 171.005 19.8159 171.005Z" fill="#07D68B" fill-opacity="0.7"/>
<path d="M19.8159 149.87C21.089 149.87 22.1075 150.889 22.1075 152.162C22.1075 153.435 21.089 154.454 19.8159 154.454C18.5427 154.454 17.5242 153.435 17.5242 152.162C17.5242 150.889 18.5427 149.87 19.8159 149.87Z" fill="#07D68B" fill-opacity="0.7"/>
<path d="M19.8159 128.481C21.0891 128.481 22.1076 129.5 22.1076 130.773C22.1076 132.046 21.0891 133.065 19.8159 133.065C18.5428 133.065 17.5243 132.046 17.5243 130.773C17.5243 129.5 18.5428 128.481 19.8159 128.481Z" fill="#07D68B" fill-opacity="0.7"/>
<path d="M19.8159 107.346C21.0891 107.346 22.1076 108.364 22.1076 109.638C22.1076 110.911 21.0891 111.93 19.8159 111.93C18.5428 111.93 17.5243 110.911 17.5243 109.638C17.5243 108.364 18.5428 107.346 19.8159 107.346Z" fill="#07D68B" fill-opacity="0.7"/>
<path d="M19.8159 85.956C21.0891 85.956 22.1076 86.9747 22.1076 88.248C22.1076 89.5214 21.0891 90.5401 19.8159 90.5401C18.5428 90.5401 17.5243 89.5214 17.5243 88.248C17.5243 86.9747 18.5428 85.956 19.8159 85.956Z" fill="#07D68B" fill-opacity="0.7"/>
<path d="M19.8159 64.8218C21.089 64.8218 22.1075 65.8406 22.1075 67.1139C22.1075 68.3873 21.089 69.406 19.8159 69.406C18.5427 69.406 17.5242 68.3873 17.5242 67.1139C17.5242 65.8406 18.5427 64.8218 19.8159 64.8218Z" fill="#07D68B" fill-opacity="0.7"/>
<path d="M19.8159 43.4319C21.089 43.4319 22.1075 44.4506 22.1075 45.7239C22.1075 46.9973 21.089 48.016 19.8159 48.016C18.5427 48.016 17.5242 46.9973 17.5242 45.7239C17.5242 44.4506 18.5427 43.4319 19.8159 43.4319Z" fill="#07D68B" fill-opacity="0.7"/>
<path d="M19.8159 22.2971C21.089 22.2971 22.1075 23.3157 22.1075 24.5891C22.1075 25.8625 21.089 26.8812 19.8159 26.8812C18.5427 26.8812 17.5242 25.8625 17.5242 24.5891C17.5242 23.3157 18.5427 22.2971 19.8159 22.2971Z" fill="#07D68B" fill-opacity="0.7"/>
<path d="M19.8159 0.907837C21.089 0.907837 22.1075 1.92651 22.1075 3.19988C22.1075 4.47324 21.089 5.49192 19.8159 5.49192C18.5427 5.49192 17.5242 4.47324 17.5242 3.19988C17.5242 1.92651 18.5427 0.907837 19.8159 0.907837Z" fill="#07D68B" fill-opacity="0.7"/>
<path d="M37.3851 277.443C38.6583 277.443 39.6768 278.462 39.6768 279.735C39.6768 281.009 38.6583 282.027 37.3851 282.027C36.112 282.027 35.0935 281.009 35.0935 279.735C35.0935 278.462 36.112 277.443 37.3851 277.443Z" fill="#07D68B" fill-opacity="0.7"/>
<path d="M37.3851 256.053C38.6583 256.053 39.6768 257.072 39.6768 258.345C39.6768 259.619 38.6583 260.637 37.3851 260.637C36.112 260.637 35.0935 259.619 35.0935 258.345C35.0935 257.072 36.112 256.053 37.3851 256.053Z" fill="#07D68B" fill-opacity="0.7"/>
<path d="M37.3851 234.918C38.6583 234.918 39.6768 235.937 39.6768 237.21C39.6768 238.484 38.6583 239.502 37.3851 239.502C36.112 239.502 35.0935 238.484 35.0935 237.21C35.0935 235.937 36.112 234.918 37.3851 234.918Z" fill="#07D68B" fill-opacity="0.7"/>
<path d="M37.3851 213.529C38.6583 213.529 39.6768 214.548 39.6768 215.821C39.6768 217.094 38.6583 218.113 37.3851 218.113C36.112 218.113 35.0935 217.094 35.0935 215.821C35.0935 214.548 36.112 213.529 37.3851 213.529Z" fill="#07D68B" fill-opacity="0.7"/>
<path d="M37.3851 192.394C38.6583 192.394 39.6768 193.413 39.6768 194.686C39.6768 195.96 38.6583 196.978 37.3851 196.978C36.112 196.978 35.0935 195.96 35.0935 194.686C35.0935 193.413 36.112 192.394 37.3851 192.394Z" fill="#07D68B" fill-opacity="0.7"/>
<path d="M37.3851 171.005C38.6583 171.005 39.6768 172.024 39.6768 173.297C39.6768 174.571 38.6583 175.589 37.3851 175.589C36.112 175.589 35.0935 174.571 35.0935 173.297C35.0935 172.024 36.112 171.005 37.3851 171.005Z" fill="#07D68B" fill-opacity="0.7"/>
<path d="M37.3851 149.87C38.6583 149.87 39.6768 150.889 39.6768 152.162C39.6768 153.435 38.6583 154.454 37.3851 154.454C36.112 154.454 35.0935 153.435 35.0935 152.162C35.0935 150.889 36.112 149.87 37.3851 149.87Z" fill="#07D68B" fill-opacity="0.7"/>
<path d="M37.3851 128.481C38.6583 128.481 39.6768 129.5 39.6768 130.773C39.6768 132.046 38.6583 133.065 37.3851 133.065C36.112 133.065 35.0935 132.046 35.0935 130.773C35.0935 129.5 36.112 128.481 37.3851 128.481Z" fill="#07D68B" fill-opacity="0.7"/>
<path d="M37.3851 107.346C38.6583 107.346 39.6768 108.364 39.6768 109.638C39.6768 110.911 38.6583 111.93 37.3851 111.93C36.112 111.93 35.0935 110.911 35.0935 109.638C35.0935 108.364 36.112 107.346 37.3851 107.346Z" fill="#07D68B" fill-opacity="0.7"/>
<path d="M37.3851 85.956C38.6583 85.956 39.6768 86.9747 39.6768 88.248C39.6768 89.5214 38.6583 90.5401 37.3851 90.5401C36.112 90.5401 35.0935 89.5214 35.0935 88.248C35.0935 86.9747 36.112 85.956 37.3851 85.956Z" fill="#07D68B" fill-opacity="0.7"/>
<path d="M37.3851 64.8218C38.6583 64.8218 39.6768 65.8406 39.6768 67.1139C39.6768 68.3873 38.6583 69.406 37.3851 69.406C36.112 69.406 35.0935 68.3873 35.0935 67.1139C35.0935 65.8406 36.112 64.8218 37.3851 64.8218Z" fill="#07D68B" fill-opacity="0.7"/>
<path d="M37.3851 43.4319C38.6583 43.4319 39.6768 44.4506 39.6768 45.7239C39.6768 46.9973 38.6583 48.016 37.3851 48.016C36.112 48.016 35.0935 46.9973 35.0935 45.7239C35.0935 44.4506 36.112 43.4319 37.3851 43.4319Z" fill="#07D68B" fill-opacity="0.7"/>
<path d="M37.3851 22.2971C38.6583 22.2971 39.6768 23.3157 39.6768 24.5891C39.6768 25.8625 38.6583 26.8812 37.3851 26.8812C36.112 26.8812 35.0935 25.8625 35.0935 24.5891C35.0935 23.3157 36.112 22.2971 37.3851 22.2971Z" fill="#07D68B" fill-opacity="0.7"/>
<path d="M37.3851 0.907837C38.6583 0.907837 39.6768 1.92651 39.6768 3.19988C39.6768 4.47324 38.6583 5.49192 37.3851 5.49192C36.112 5.49192 35.0935 4.47324 35.0935 3.19988C35.0935 1.92651 36.112 0.907837 37.3851 0.907837Z" fill="#07D68B" fill-opacity="0.7"/>
<path d="M54.6995 277.443C55.9726 277.443 56.9911 278.462 56.9911 279.735C56.9911 281.009 55.9726 282.027 54.6995 282.027C53.4263 282.027 52.4078 281.009 52.4078 279.735C52.4078 278.462 53.4263 277.443 54.6995 277.443Z" fill="#07D68B" fill-opacity="0.7"/>
<path d="M54.6995 256.053C55.9726 256.053 56.9911 257.072 56.9911 258.345C56.9911 259.619 55.9726 260.637 54.6995 260.637C53.4263 260.637 52.4078 259.619 52.4078 258.345C52.4078 257.072 53.4263 256.053 54.6995 256.053Z" fill="#07D68B" fill-opacity="0.7"/>
<path d="M54.6995 234.918C55.9726 234.918 56.9911 235.937 56.9911 237.21C56.9911 238.484 55.9726 239.502 54.6995 239.502C53.4263 239.502 52.4078 238.484 52.4078 237.21C52.4078 235.937 53.4263 234.918 54.6995 234.918Z" fill="#07D68B" fill-opacity="0.7"/>
<path d="M54.6995 213.529C55.9726 213.529 56.9911 214.548 56.9911 215.821C56.9911 217.094 55.9726 218.113 54.6995 218.113C53.4263 218.113 52.4078 217.094 52.4078 215.821C52.4078 214.548 53.4263 213.529 54.6995 213.529Z" fill="#07D68B" fill-opacity="0.7"/>
<path d="M54.6995 192.394C55.9726 192.394 56.9911 193.413 56.9911 194.686C56.9911 195.96 55.9726 196.978 54.6995 196.978C53.4263 196.978 52.4078 195.96 52.4078 194.686C52.4078 193.413 53.4263 192.394 54.6995 192.394Z" fill="#07D68B" fill-opacity="0.7"/>
<path d="M54.6995 171.005C55.9726 171.005 56.9911 172.024 56.9911 173.297C56.9911 174.571 55.9726 175.589 54.6995 175.589C53.4263 175.589 52.4078 174.571 52.4078 173.297C52.4078 172.024 53.4263 171.005 54.6995 171.005Z" fill="#07D68B" fill-opacity="0.7"/>
<path d="M54.6995 149.87C55.9726 149.87 56.9911 150.889 56.9911 152.162C56.9911 153.435 55.9726 154.454 54.6995 154.454C53.4263 154.454 52.4078 153.435 52.4078 152.162C52.4078 150.889 53.4263 149.87 54.6995 149.87Z" fill="#07D68B" fill-opacity="0.7"/>
<path d="M54.6995 128.481C55.9726 128.481 56.9911 129.5 56.9911 130.773C56.9911 132.046 55.9726 133.065 54.6995 133.065C53.4263 133.065 52.4078 132.046 52.4078 130.773C52.4078 129.5 53.4263 128.481 54.6995 128.481Z" fill="#07D68B" fill-opacity="0.7"/>
<path d="M54.6995 107.346C55.9726 107.346 56.9911 108.364 56.9911 109.638C56.9911 110.911 55.9726 111.93 54.6995 111.93C53.4263 111.93 52.4078 110.911 52.4078 109.638C52.4078 108.364 53.4263 107.346 54.6995 107.346Z" fill="#07D68B" fill-opacity="0.7"/>
<path d="M54.6995 85.956C55.9726 85.956 56.9911 86.9747 56.9911 88.248C56.9911 89.5214 55.9726 90.5401 54.6995 90.5401C53.4263 90.5401 52.4078 89.5214 52.4078 88.248C52.4078 86.9747 53.4263 85.956 54.6995 85.956Z" fill="#07D68B" fill-opacity="0.7"/>
<path d="M54.6995 64.8218C55.9726 64.8218 56.9911 65.8406 56.9911 67.1139C56.9911 68.3873 55.9726 69.406 54.6995 69.406C53.4263 69.406 52.4078 68.3873 52.4078 67.1139C52.4078 65.8406 53.4263 64.8218 54.6995 64.8218Z" fill="#07D68B" fill-opacity="0.7"/>
<path d="M54.6995 43.4319C55.9726 43.4319 56.9911 44.4506 56.9911 45.7239C56.9911 46.9973 55.9726 48.016 54.6995 48.016C53.4263 48.016 52.4078 46.9973 52.4078 45.7239C52.4078 44.4506 53.4263 43.4319 54.6995 43.4319Z" fill="#07D68B" fill-opacity="0.7"/>
<path d="M54.6995 22.2971C55.9726 22.2971 56.9911 23.3157 56.9911 24.5891C56.9911 25.8625 55.9726 26.8812 54.6995 26.8812C53.4263 26.8812 52.4078 25.8625 52.4078 24.5891C52.4078 23.3157 53.4263 22.2971 54.6995 22.2971Z" fill="#07D68B" fill-opacity="0.7"/>
<path d="M54.6995 0.907837C55.9726 0.907837 56.9911 1.92651 56.9911 3.19988C56.9911 4.47324 55.9726 5.49192 54.6995 5.49192C53.4263 5.49192 52.4078 4.47324 52.4078 3.19988C52.4078 1.92651 53.4263 0.907837 54.6995 0.907837Z" fill="#07D68B" fill-opacity="0.7"/>
<path d="M72.27 277.443C73.5431 277.443 74.5616 278.462 74.5616 279.735C74.5616 281.009 73.5431 282.027 72.27 282.027C70.9968 282.027 69.9783 281.009 69.9783 279.735C69.9783 278.462 70.9968 277.443 72.27 277.443Z" fill="#07D68B" fill-opacity="0.7"/>
<path d="M72.27 256.053C73.5431 256.053 74.5616 257.072 74.5616 258.345C74.5616 259.619 73.5431 260.637 72.27 260.637C70.9968 260.637 69.9783 259.619 69.9783 258.345C69.9783 257.072 70.9968 256.053 72.27 256.053Z" fill="#07D68B" fill-opacity="0.7"/>
<path d="M72.27 234.918C73.5431 234.918 74.5616 235.937 74.5616 237.21C74.5616 238.484 73.5431 239.502 72.27 239.502C70.9968 239.502 69.9783 238.484 69.9783 237.21C69.9783 235.937 70.9968 234.918 72.27 234.918Z" fill="#07D68B" fill-opacity="0.7"/>
<path d="M72.27 213.529C73.5431 213.529 74.5616 214.548 74.5616 215.821C74.5616 217.094 73.5431 218.113 72.27 218.113C70.9968 218.113 69.9783 217.094 69.9783 215.821C69.9783 214.548 70.9968 213.529 72.27 213.529Z" fill="#07D68B" fill-opacity="0.7"/>
<path d="M72.27 192.394C73.5431 192.394 74.5616 193.413 74.5616 194.686C74.5616 195.96 73.5431 196.978 72.27 196.978C70.9968 196.978 69.9783 195.96 69.9783 194.686C69.9783 193.413 70.9968 192.394 72.27 192.394Z" fill="#07D68B" fill-opacity="0.7"/>
<path d="M72.27 171.005C73.5431 171.005 74.5616 172.024 74.5616 173.297C74.5616 174.571 73.5431 175.589 72.27 175.589C70.9968 175.589 69.9783 174.571 69.9783 173.297C69.9783 172.024 70.9968 171.005 72.27 171.005Z" fill="#07D68B" fill-opacity="0.7"/>
<path d="M72.27 149.87C73.5431 149.87 74.5616 150.889 74.5616 152.162C74.5616 153.435 73.5431 154.454 72.27 154.454C70.9968 154.454 69.9783 153.435 69.9783 152.162C69.9783 150.889 70.9968 149.87 72.27 149.87Z" fill="#07D68B" fill-opacity="0.7"/>
<path d="M72.27 128.481C73.5431 128.481 74.5616 129.5 74.5616 130.773C74.5616 132.046 73.5431 133.065 72.27 133.065C70.9968 133.065 69.9783 132.046 69.9783 130.773C69.9783 129.5 70.9968 128.481 72.27 128.481Z" fill="#07D68B" fill-opacity="0.7"/>
<path d="M72.27 107.346C73.5431 107.346 74.5616 108.364 74.5616 109.638C74.5616 110.911 73.5431 111.93 72.27 111.93C70.9968 111.93 69.9783 110.911 69.9783 109.638C69.9783 108.364 70.9968 107.346 72.27 107.346Z" fill="#07D68B" fill-opacity="0.7"/>
<path d="M72.27 85.956C73.5431 85.956 74.5616 86.9747 74.5616 88.248C74.5616 89.5214 73.5431 90.5401 72.27 90.5401C70.9968 90.5401 69.9783 89.5214 69.9783 88.248C69.9783 86.9747 70.9968 85.956 72.27 85.956Z" fill="#07D68B" fill-opacity="0.7"/>
<path d="M72.27 64.8218C73.5431 64.8218 74.5616 65.8406 74.5616 67.1139C74.5616 68.3873 73.5431 69.406 72.27 69.406C70.9968 69.406 69.9783 68.3873 69.9783 67.1139C69.9783 65.8406 70.9968 64.8218 72.27 64.8218Z" fill="#07D68B" fill-opacity="0.7"/>
<path d="M72.27 43.4319C73.5431 43.4319 74.5616 44.4506 74.5616 45.7239C74.5616 46.9973 73.5431 48.016 72.27 48.016C70.9968 48.016 69.9783 46.9973 69.9783 45.7239C69.9783 44.4506 70.9968 43.4319 72.27 43.4319Z" fill="#07D68B" fill-opacity="0.7"/>
<path d="M72.27 22.2971C73.5431 22.2971 74.5616 23.3157 74.5616 24.5891C74.5616 25.8625 73.5431 26.8812 72.27 26.8812C70.9968 26.8812 69.9783 25.8625 69.9783 24.5891C69.9783 23.3157 70.9968 22.2971 72.27 22.2971Z" fill="#07D68B" fill-opacity="0.7"/>
<path d="M72.27 0.907837C73.5431 0.907837 74.5616 1.92651 74.5616 3.19988C74.5616 4.47324 73.5431 5.49192 72.27 5.49192C70.9968 5.49192 69.9783 4.47324 69.9783 3.19988C69.9783 1.92651 70.9968 0.907837 72.27 0.907837Z" fill="#07D68B" fill-opacity="0.7"/>
<path d="M89.5844 277.443C90.8575 277.443 91.876 278.462 91.876 279.735C91.876 281.009 90.8575 282.027 89.5844 282.027C88.3112 282.027 87.2927 281.009 87.2927 279.735C87.2927 278.462 88.3112 277.443 89.5844 277.443Z" fill="#07D68B" fill-opacity="0.7"/>
<path d="M89.5844 256.053C90.8575 256.053 91.876 257.072 91.876 258.345C91.876 259.619 90.8575 260.637 89.5844 260.637C88.3112 260.637 87.2927 259.619 87.2927 258.345C87.2927 257.072 88.3112 256.053 89.5844 256.053Z" fill="#07D68B" fill-opacity="0.7"/>
<path d="M89.5844 234.918C90.8575 234.918 91.876 235.937 91.876 237.21C91.876 238.484 90.8575 239.502 89.5844 239.502C88.3112 239.502 87.2927 238.484 87.2927 237.21C87.2927 235.937 88.3112 234.918 89.5844 234.918Z" fill="#07D68B" fill-opacity="0.7"/>
<path d="M89.5843 213.529C90.8575 213.529 91.876 214.548 91.876 215.821C91.876 217.094 90.8575 218.113 89.5843 218.113C88.3111 218.113 87.2926 217.094 87.2926 215.821C87.2926 214.548 88.3111 213.529 89.5843 213.529Z" fill="#07D68B" fill-opacity="0.7"/>
<path d="M89.5844 192.394C90.8575 192.394 91.876 193.413 91.876 194.686C91.876 195.96 90.8575 196.978 89.5844 196.978C88.3112 196.978 87.2927 195.96 87.2927 194.686C87.2927 193.413 88.3112 192.394 89.5844 192.394Z" fill="#07D68B" fill-opacity="0.7"/>
<path d="M89.5844 171.005C90.8575 171.005 91.876 172.024 91.876 173.297C91.876 174.571 90.8575 175.589 89.5844 175.589C88.3112 175.589 87.2927 174.571 87.2927 173.297C87.2927 172.024 88.3112 171.005 89.5844 171.005Z" fill="#07D68B" fill-opacity="0.7"/>
<path d="M89.5844 149.87C90.8575 149.87 91.876 150.889 91.876 152.162C91.876 153.435 90.8575 154.454 89.5844 154.454C88.3112 154.454 87.2927 153.435 87.2927 152.162C87.2927 150.889 88.3112 149.87 89.5844 149.87Z" fill="#07D68B" fill-opacity="0.7"/>
<path d="M89.5844 128.481C90.8575 128.481 91.876 129.5 91.876 130.773C91.876 132.046 90.8575 133.065 89.5844 133.065C88.3112 133.065 87.2927 132.046 87.2927 130.773C87.2927 129.5 88.3112 128.481 89.5844 128.481Z" fill="#07D68B" fill-opacity="0.7"/>
<path d="M89.5844 107.346C90.8575 107.346 91.876 108.364 91.876 109.638C91.876 110.911 90.8575 111.93 89.5844 111.93C88.3112 111.93 87.2927 110.911 87.2927 109.638C87.2927 108.364 88.3112 107.346 89.5844 107.346Z" fill="#07D68B" fill-opacity="0.7"/>
<path d="M89.5844 85.956C90.8575 85.956 91.876 86.9747 91.876 88.248C91.876 89.5214 90.8575 90.5401 89.5844 90.5401C88.3112 90.5401 87.2927 89.5214 87.2927 88.248C87.2927 86.9747 88.3112 85.956 89.5844 85.956Z" fill="#07D68B" fill-opacity="0.7"/>
<path d="M89.5844 64.8218C90.8575 64.8218 91.876 65.8406 91.876 67.1139C91.876 68.3873 90.8575 69.406 89.5844 69.406C88.3112 69.406 87.2927 68.3873 87.2927 67.1139C87.2927 65.8406 88.3112 64.8218 89.5844 64.8218Z" fill="#07D68B" fill-opacity="0.7"/>
<path d="M89.5844 43.4319C90.8575 43.4319 91.876 44.4506 91.876 45.7239C91.876 46.9973 90.8575 48.016 89.5844 48.016C88.3112 48.016 87.2927 46.9973 87.2927 45.7239C87.2927 44.4506 88.3112 43.4319 89.5844 43.4319Z" fill="#07D68B" fill-opacity="0.7"/>
<path d="M89.5844 22.2971C90.8575 22.2971 91.876 23.3157 91.876 24.5891C91.876 25.8625 90.8575 26.8812 89.5844 26.8812C88.3112 26.8812 87.2927 25.8625 87.2927 24.5891C87.2927 23.3157 88.3112 22.2971 89.5844 22.2971Z" fill="#07D68B" fill-opacity="0.7"/>
<path d="M89.5844 0.907837C90.8575 0.907837 91.876 1.92651 91.876 3.19988C91.876 4.47324 90.8575 5.49192 89.5844 5.49192C88.3112 5.49192 87.2927 4.47324 87.2927 3.19988C87.2927 1.92651 88.3112 0.907837 89.5844 0.907837Z" fill="#07D68B" fill-opacity="0.7"/>
<path d="M107.154 277.443C108.427 277.443 109.445 278.462 109.445 279.735C109.445 281.009 108.427 282.027 107.154 282.027C105.88 282.027 104.862 281.009 104.862 279.735C104.862 278.462 105.88 277.443 107.154 277.443Z" fill="#07D68B" fill-opacity="0.7"/>
<path d="M107.154 256.053C108.427 256.053 109.445 257.072 109.445 258.345C109.445 259.619 108.427 260.637 107.154 260.637C105.88 260.637 104.862 259.619 104.862 258.345C104.862 257.072 105.88 256.053 107.154 256.053Z" fill="#07D68B" fill-opacity="0.7"/>
<path d="M107.154 234.918C108.427 234.918 109.445 235.937 109.445 237.21C109.445 238.484 108.427 239.502 107.154 239.502C105.88 239.502 104.862 238.484 104.862 237.21C104.862 235.937 105.88 234.918 107.154 234.918Z" fill="#07D68B" fill-opacity="0.7"/>
<path d="M107.154 213.529C108.427 213.529 109.445 214.548 109.445 215.821C109.445 217.094 108.427 218.113 107.154 218.113C105.88 218.113 104.862 217.094 104.862 215.821C104.862 214.548 105.88 213.529 107.154 213.529Z" fill="#07D68B" fill-opacity="0.7"/>
<path d="M107.154 192.394C108.427 192.394 109.445 193.413 109.445 194.686C109.445 195.96 108.427 196.978 107.154 196.978C105.88 196.978 104.862 195.96 104.862 194.686C104.862 193.413 105.88 192.394 107.154 192.394Z" fill="#07D68B" fill-opacity="0.7"/>
<path d="M107.154 171.005C108.427 171.005 109.445 172.024 109.445 173.297C109.445 174.571 108.427 175.589 107.154 175.589C105.88 175.589 104.862 174.571 104.862 173.297C104.862 172.024 105.88 171.005 107.154 171.005Z" fill="#07D68B" fill-opacity="0.7"/>
<path d="M107.154 149.87C108.427 149.87 109.445 150.889 109.445 152.162C109.445 153.435 108.427 154.454 107.154 154.454C105.88 154.454 104.862 153.435 104.862 152.162C104.862 150.889 105.88 149.87 107.154 149.87Z" fill="#07D68B" fill-opacity="0.7"/>
<path d="M107.154 128.481C108.427 128.481 109.445 129.5 109.445 130.773C109.445 132.046 108.427 133.065 107.154 133.065C105.88 133.065 104.862 132.046 104.862 130.773C104.862 129.5 105.88 128.481 107.154 128.481Z" fill="#07D68B" fill-opacity="0.7"/>
<path d="M107.154 107.346C108.427 107.346 109.445 108.364 109.445 109.638C109.445 110.911 108.427 111.93 107.154 111.93C105.88 111.93 104.862 110.911 104.862 109.638C104.862 108.364 105.88 107.346 107.154 107.346Z" fill="#07D68B" fill-opacity="0.7"/>
<path d="M107.154 85.956C108.427 85.956 109.445 86.9747 109.445 88.248C109.445 89.5214 108.427 90.5401 107.154 90.5401C105.88 90.5401 104.862 89.5214 104.862 88.248C104.862 86.9747 105.88 85.956 107.154 85.956Z" fill="#07D68B" fill-opacity="0.7"/>
<path d="M107.154 64.8218C108.427 64.8218 109.445 65.8406 109.445 67.1139C109.445 68.3873 108.427 69.406 107.154 69.406C105.88 69.406 104.862 68.3873 104.862 67.1139C104.862 65.8406 105.88 64.8218 107.154 64.8218Z" fill="#07D68B" fill-opacity="0.7"/>
<path d="M107.154 43.4319C108.427 43.4319 109.445 44.4506 109.445 45.7239C109.445 46.9973 108.427 48.016 107.154 48.016C105.88 48.016 104.862 46.9973 104.862 45.7239C104.862 44.4506 105.88 43.4319 107.154 43.4319Z" fill="#07D68B" fill-opacity="0.7"/>
<path d="M107.154 22.2971C108.427 22.2971 109.445 23.3157 109.445 24.5891C109.445 25.8625 108.427 26.8812 107.154 26.8812C105.88 26.8812 104.862 25.8625 104.862 24.5891C104.862 23.3157 105.88 22.2971 107.154 22.2971Z" fill="#07D68B" fill-opacity="0.7"/>
<path d="M107.154 0.907837C108.427 0.907837 109.445 1.92651 109.445 3.19988C109.445 4.47324 108.427 5.49192 107.154 5.49192C105.88 5.49192 104.862 4.47324 104.862 3.19988C104.862 1.92651 105.88 0.907837 107.154 0.907837Z" fill="#07D68B" fill-opacity="0.7"/>
<path d="M124.469 277.443C125.742 277.443 126.761 278.462 126.761 279.735C126.761 281.009 125.742 282.027 124.469 282.027C123.196 282.027 122.178 281.009 122.178 279.735C122.178 278.462 123.196 277.443 124.469 277.443Z" fill="#07D68B" fill-opacity="0.7"/>
<path d="M124.469 256.053C125.742 256.053 126.761 257.072 126.761 258.345C126.761 259.619 125.742 260.637 124.469 260.637C123.196 260.637 122.178 259.619 122.178 258.345C122.178 257.072 123.196 256.053 124.469 256.053Z" fill="#07D68B" fill-opacity="0.7"/>
<path d="M124.469 234.918C125.742 234.918 126.761 235.937 126.761 237.21C126.761 238.484 125.742 239.502 124.469 239.502C123.196 239.502 122.178 238.484 122.178 237.21C122.178 235.937 123.196 234.918 124.469 234.918Z" fill="#07D68B" fill-opacity="0.7"/>
<path d="M124.469 213.529C125.742 213.529 126.761 214.548 126.761 215.821C126.761 217.094 125.742 218.113 124.469 218.113C123.196 218.113 122.178 217.094 122.178 215.821C122.178 214.548 123.196 213.529 124.469 213.529Z" fill="#07D68B" fill-opacity="0.7"/>
<path d="M124.469 192.394C125.742 192.394 126.761 193.413 126.761 194.686C126.761 195.96 125.742 196.978 124.469 196.978C123.196 196.978 122.178 195.96 122.178 194.686C122.178 193.413 123.196 192.394 124.469 192.394Z" fill="#07D68B" fill-opacity="0.7"/>
<path d="M124.469 171.005C125.742 171.005 126.761 172.024 126.761 173.297C126.761 174.571 125.742 175.589 124.469 175.589C123.196 175.589 122.178 174.571 122.178 173.297C122.178 172.024 123.196 171.005 124.469 171.005Z" fill="#07D68B" fill-opacity="0.7"/>
<path d="M124.469 149.87C125.742 149.87 126.761 150.889 126.761 152.162C126.761 153.435 125.742 154.454 124.469 154.454C123.196 154.454 122.178 153.435 122.178 152.162C122.178 150.889 123.196 149.87 124.469 149.87Z" fill="#07D68B" fill-opacity="0.7"/>
<path d="M124.469 128.481C125.742 128.481 126.761 129.5 126.761 130.773C126.761 132.046 125.742 133.065 124.469 133.065C123.196 133.065 122.178 132.046 122.178 130.773C122.178 129.5 123.196 128.481 124.469 128.481Z" fill="#07D68B" fill-opacity="0.7"/>
<path d="M124.469 107.346C125.742 107.346 126.761 108.364 126.761 109.638C126.761 110.911 125.742 111.93 124.469 111.93C123.196 111.93 122.178 110.911 122.178 109.638C122.178 108.364 123.196 107.346 124.469 107.346Z" fill="#07D68B" fill-opacity="0.7"/>
<path d="M124.469 85.956C125.742 85.956 126.761 86.9747 126.761 88.248C126.761 89.5214 125.742 90.5401 124.469 90.5401C123.196 90.5401 122.178 89.5214 122.178 88.248C122.178 86.9747 123.196 85.956 124.469 85.956Z" fill="#07D68B" fill-opacity="0.7"/>
<path d="M124.469 64.8218C125.742 64.8218 126.761 65.8406 126.761 67.1139C126.761 68.3873 125.742 69.406 124.469 69.406C123.196 69.406 122.178 68.3873 122.178 67.1139C122.178 65.8406 123.196 64.8218 124.469 64.8218Z" fill="#07D68B" fill-opacity="0.7"/>
<path d="M124.469 43.4319C125.742 43.4319 126.761 44.4506 126.761 45.7239C126.761 46.9973 125.742 48.016 124.469 48.016C123.196 48.016 122.178 46.9973 122.178 45.7239C122.178 44.4506 123.196 43.4319 124.469 43.4319Z" fill="#07D68B" fill-opacity="0.7"/>
<path d="M124.469 22.2971C125.742 22.2971 126.761 23.3157 126.761 24.5891C126.761 25.8625 125.742 26.8812 124.469 26.8812C123.196 26.8812 122.178 25.8625 122.178 24.5891C122.178 23.3157 123.196 22.2971 124.469 22.2971Z" fill="#07D68B" fill-opacity="0.7"/>
<path d="M124.469 0.907837C125.742 0.907837 126.761 1.92651 126.761 3.19988C126.761 4.47324 125.742 5.49192 124.469 5.49192C123.196 5.49192 122.178 4.47324 122.178 3.19988C122.178 1.92651 123.196 0.907837 124.469 0.907837Z" fill="#07D68B" fill-opacity="0.7"/>
<path d="M141.784 277.443C143.057 277.443 144.075 278.462 144.075 279.735C144.075 281.009 143.057 282.027 141.784 282.027C140.51 282.027 139.492 281.009 139.492 279.735C139.747 278.462 140.765 277.443 141.784 277.443Z" fill="#07D68B" fill-opacity="0.7"/>
<path d="M141.784 256.053C143.057 256.053 144.075 257.072 144.075 258.345C144.075 259.619 143.057 260.637 141.784 260.637C140.51 260.637 139.492 259.619 139.492 258.345C139.747 257.072 140.765 256.053 141.784 256.053Z" fill="#07D68B" fill-opacity="0.7"/>
<path d="M141.784 234.918C143.057 234.918 144.075 235.937 144.075 237.21C144.075 238.484 143.057 239.502 141.784 239.502C140.51 239.502 139.492 238.484 139.492 237.21C139.747 235.937 140.765 234.918 141.784 234.918Z" fill="#07D68B" fill-opacity="0.7"/>
<path d="M141.784 213.529C143.057 213.529 144.075 214.548 144.075 215.821C144.075 217.095 143.057 218.113 141.784 218.113C140.51 218.113 139.492 217.095 139.492 215.821C139.747 214.548 140.765 213.529 141.784 213.529Z" fill="#07D68B" fill-opacity="0.7"/>
<path d="M141.784 192.394C143.057 192.394 144.075 193.413 144.075 194.686C144.075 195.96 143.057 196.978 141.784 196.978C140.51 196.978 139.492 195.96 139.492 194.686C139.747 193.413 140.765 192.394 141.784 192.394Z" fill="#07D68B" fill-opacity="0.7"/>
<path d="M141.784 171.005C143.057 171.005 144.075 172.024 144.075 173.297C144.075 174.571 143.057 175.589 141.784 175.589C140.51 175.589 139.492 174.571 139.492 173.297C139.747 172.024 140.765 171.005 141.784 171.005Z" fill="#07D68B" fill-opacity="0.7"/>
<path d="M141.784 149.87C143.057 149.87 144.075 150.889 144.075 152.162C144.075 153.435 143.057 154.454 141.784 154.454C140.51 154.454 139.492 153.435 139.492 152.162C139.747 150.889 140.765 149.87 141.784 149.87Z" fill="#07D68B" fill-opacity="0.7"/>
<path d="M141.784 128.481C143.057 128.481 144.075 129.5 144.075 130.773C144.075 132.046 143.057 133.065 141.784 133.065C140.51 133.065 139.492 132.046 139.492 130.773C139.747 129.5 140.765 128.481 141.784 128.481Z" fill="#07D68B" fill-opacity="0.7"/>
<path d="M141.784 107.346C143.057 107.346 144.075 108.364 144.075 109.638C144.075 110.911 143.057 111.93 141.784 111.93C140.51 111.93 139.492 110.911 139.492 109.638C139.747 108.364 140.765 107.346 141.784 107.346Z" fill="#07D68B" fill-opacity="0.7"/>
<path d="M141.784 85.956C143.057 85.956 144.075 86.9747 144.075 88.248C144.075 89.5214 143.057 90.5401 141.784 90.5401C140.51 90.5401 139.492 89.5214 139.492 88.248C139.747 86.9747 140.765 85.956 141.784 85.956Z" fill="#07D68B" fill-opacity="0.7"/>
<path d="M141.784 64.8218C143.057 64.8218 144.075 65.8406 144.075 67.1139C144.075 68.3873 143.057 69.406 141.784 69.406C140.51 69.406 139.492 68.3873 139.492 67.1139C139.747 65.8406 140.765 64.8218 141.784 64.8218Z" fill="#07D68B" fill-opacity="0.7"/>
<path d="M141.784 43.4319C143.057 43.4319 144.075 44.4506 144.075 45.7239C144.075 46.9973 143.057 48.016 141.784 48.016C140.51 48.016 139.492 46.9973 139.492 45.7239C139.747 44.4506 140.765 43.4319 141.784 43.4319Z" fill="#07D68B" fill-opacity="0.7"/>
<path d="M141.784 22.2971C143.057 22.2971 144.075 23.3157 144.075 24.5891C144.075 25.8625 143.057 26.8812 141.784 26.8812C140.51 26.8812 139.492 25.8625 139.492 24.5891C139.747 23.3157 140.765 22.2971 141.784 22.2971Z" fill="#07D68B" fill-opacity="0.7"/>
<path d="M141.784 0.907715C143.057 0.907715 144.075 1.92639 144.075 3.19976C144.075 4.47312 143.057 5.4918 141.784 5.4918C140.51 5.4918 139.492 4.47312 139.492 3.19976C139.746 1.92639 140.765 0.907715 141.784 0.907715Z" fill="#07D68B" fill-opacity="0.7"/>
</svg>
