<svg width="197" height="49" viewBox="0 0 197 49" fill="none" xmlns="http://www.w3.org/2000/svg">
<g clip-path="url(#clip0_1_1804)">
<path d="M41.7831 25.7655C38.7156 25.7655 36.3536 27.0763 34.3713 29.1782L34.2315 29.1329C34.4201 27.2082 34.5143 25.2826 34.5143 23.3157V18.0795H26.6311V46.7641H34.5152V33.8142C35.5994 32.7203 36.6861 31.9331 38.3377 31.9331C40.7931 31.9331 41.315 33.6379 41.315 35.6087V46.7641H49.1974V33.4646C49.1974 29.0893 46.7907 25.7663 41.788 25.7663" fill="white"/>
<path d="M65.0036 41.8199C61.889 41.8199 60.2349 38.8028 60.2349 36.2648C60.2349 33.8119 61.6508 31.4946 64.5355 31.4946C67.6964 31.4946 69.1594 34.5608 69.1594 37.0957C69.1594 39.5019 67.9304 41.8191 65.0069 41.8191M65.1003 25.7648C57.9242 25.7648 52.3558 30.0497 52.3558 36.9202C52.3558 43.3936 57.7365 47.4218 64.4859 47.4218C71.4718 47.4218 77.0889 43.2641 77.0889 36.527C77.0889 30.1402 71.8985 25.7655 65.097 25.7655" fill="white"/>
<path d="M109.837 25.7655C106.25 25.7655 104.317 27.12 102.051 29.6159L101.862 29.5706C100.68 26.8571 98.5577 25.7655 95.4431 25.7655C91.9969 25.7655 89.6349 27.1645 87.7005 29.7891L87.5127 29.7446C87.5587 28.9901 87.4115 28.2362 87.0831 27.5445C86.7546 26.8529 86.2543 26.243 85.623 25.7648L78.9241 27.2978C80.6228 29.4848 80.3871 31.8051 80.3871 34.3853V46.7656H88.2703V33.8142C88.7731 33.2754 89.3871 32.8351 90.076 32.5191C90.7649 32.2032 91.515 32.018 92.2822 31.9745C94.5483 31.9745 94.9287 33.5942 94.9287 35.3427V46.7641H102.761V33.8142C103.784 32.7341 105.226 32.0727 106.773 31.9745C109.039 31.9745 109.42 33.5942 109.42 35.3427V46.7641H117.303V33.3765C117.303 31.7576 117.256 29.9202 116.265 28.5205C114.942 26.5957 112.206 25.7655 109.845 25.7655" fill="white"/>
<path d="M132.998 41.82C131.99 42.4975 130.794 42.8922 129.551 42.9567C128.916 42.9591 128.305 42.7324 127.847 42.3245C127.389 41.9166 127.12 41.3596 127.098 40.7713C127.098 37.9282 130.92 37.5319 133.233 37.2698C132.808 38.6258 132.998 40.4203 132.998 41.82ZM140.596 38.9347V34.1193C140.596 31.8894 140.361 29.6565 138.52 28.0391C136.679 26.4217 133.806 25.8077 131.297 25.8077C128.012 25.8182 124.777 26.554 121.859 27.954V32.853C124.112 31.7271 126.615 31.0976 129.173 31.0133C131.158 31.0133 132.573 31.671 132.951 33.5513C132.976 33.7306 133.023 33.9066 133.092 34.0756C130.466 34.0959 127.851 34.4047 125.303 34.9955C122.143 35.9153 119.877 38.1015 119.877 41.2933C119.877 44.9727 122.756 47.4632 126.673 47.4632C129.651 47.4632 131.629 46.3264 133.847 44.6201C134.746 46.7664 136.538 47.3796 138.851 47.3796C140.091 47.2508 141.315 47.0155 142.508 46.6767L143.875 41.8215C140.854 41.8215 140.593 41.3823 140.593 38.9347" fill="white"/>
<path d="M154.486 32.4627C154.47 31.2838 155.975 30.9136 156.962 30.9005C158.76 30.876 160.376 31.6862 161.944 32.3654L163.283 27.4902C160.532 26.4339 158.156 25.6773 155.138 25.7172C150.843 25.7747 146.011 27.7631 146.083 32.357C146.184 38.8319 155.232 37.9236 155.275 40.7222C155.293 41.859 153.874 42.8279 152.857 42.9666C150.604 43.2732 147.78 42.5519 145.858 42.0015L144.749 46.9319C148.156 47.6239 151.645 47.9093 155.131 47.7812C159.648 47.4516 163.941 45.4655 163.864 40.5666C163.765 34.1346 154.529 35.1326 154.486 32.4627Z" fill="white"/>
<path d="M191.302 4.19211H192.332V6.45417H192.733V4.19211H193.761V3.85254H191.3L191.302 4.19211Z" fill="white"/>
<path d="M196.458 3.85254L195.448 4.94639L194.439 3.85254H194.087V6.45417H194.477V4.42438L195.445 5.473L196.415 4.42438V6.4534H196.805V3.85254H196.458Z" fill="white"/>
<path d="M14.3556 41.0518C13.6163 40.2784 13.2365 39.2657 13.2987 38.234V32.0166H18.9704V26.8318H13.3202V23.1355H13.3003V18.3883L9.29835 18.3546H5.08713V26.8333H0.429303V31.8587L0.417725 32.0181H5.13179V38.6464C5.13179 41.6012 6.01119 43.8428 7.77 45.3712C9.52881 46.8997 12.0041 47.6647 15.1959 47.6662C17.7985 47.6345 20.3684 47.1241 22.7566 46.1646V40.6823C21.0792 41.5471 19.2033 42.028 17.285 42.0851C16.7459 42.1129 16.2065 42.0354 15.7019 41.8575C15.1972 41.6796 14.7385 41.4054 14.3556 41.0526" fill="white"/>
<path d="M168.686 12.46C167.975 13.0813 167.126 13.5521 166.199 13.8397C165.176 14.199 164.132 14.5061 163.073 14.7596L161.304 15.1038L159.733 15.3728C159.352 15.4581 159.013 15.6618 158.774 15.9501C158.535 16.2383 158.409 16.5937 158.418 16.9573C158.426 17.7527 158.713 18.5242 159.235 19.1556C159.757 19.787 160.486 20.2444 161.313 20.4588C162.16 20.7156 164.097 20.5493 168.904 21.7933C172.275 22.668 170.861 23.6683 170.416 24.5835C170.15 25.1201 167.88 28.624 168.625 31.3973C168.844 32.1433 169.268 32.824 169.856 33.3729C170.443 33.9219 171.174 34.3203 171.977 34.5294C172.363 34.6285 172.754 34.7078 173.148 34.767C173.527 34.8163 173.909 34.846 174.291 34.8559C174.291 34.8559 177.016 34.9878 178.607 33.9269C179.925 33.0461 180.363 32.2574 179.956 32.1163C178.952 31.6442 178.128 30.9008 177.59 29.9846C177.167 29.1527 177.021 28.2223 177.173 27.3132C177.437 26.206 178.108 25.218 179.07 24.5176C181.456 22.8987 184.289 23.9243 185.246 24.4908C186.228 25.1512 187.171 25.8586 188.073 26.6103C188.681 27.0152 189.367 27.307 190.095 27.4696C190.873 27.6066 191.679 27.4953 192.38 27.1538C193.064 26.8596 193.619 26.3566 193.951 25.7288C194.314 25.2149 194.554 24.6357 194.658 24.0293C194.752 23.5204 194.789 23.0038 194.768 22.4878C194.741 21.1341 193.314 17.0868 191.81 16.8545C191.177 16.7549 189.916 18.081 188.833 18.869C188.31 19.2536 187.691 19.5092 187.033 19.6118C186.053 19.7711 185.044 19.6516 184.139 19.2691C183.436 18.9756 182.833 18.509 182.396 17.9201C181.959 17.3313 181.705 16.6427 181.66 15.9292C181.616 15.2157 181.784 14.5046 182.145 13.8733C182.506 13.2419 183.047 12.7144 183.709 12.3481C184.395 11.9362 185.2 11.7279 186.017 11.7509C186.659 11.7528 187.295 11.8703 187.888 12.0966C187.935 12.1104 188.349 12.1733 188.798 11.4428C189.324 10.5896 189.212 8.45865 189.182 8.08995C189.006 5.99347 188.127 4.8245 187.368 4.57614C186.718 4.36764 185.889 4.13308 183.729 5.3856C183.347 5.60713 181.653 6.68872 181.653 6.68872C181.653 6.68872 179.397 7.93051 179.274 7.99796C178.435 8.43579 177.511 8.71411 176.555 8.81662C175.909 8.85495 174.86 7.99873 175.256 7.32878C175.454 6.9892 175.66 6.52468 175.66 6.52468C175.911 5.91987 176.008 5.26936 175.943 4.62404C175.878 3.97873 175.653 3.35612 175.285 2.80492C174.917 2.25373 174.417 1.78891 173.823 1.44684C173.229 1.10477 172.558 0.89472 171.861 0.833132C171.134 0.743813 170.394 0.80209 169.693 1.00393C168.992 1.20577 168.347 1.54635 167.802 2.0021C167.16 2.53947 166.713 3.24839 166.523 4.03113C166.456 4.28624 166.416 4.54682 166.403 4.80917C166.328 5.80414 166.61 6.79423 167.206 7.62466C167.476 7.98416 168.006 8.53301 168.137 8.69015C168.247 8.82889 168.845 9.46128 169.023 9.68128C169.276 10.0111 169.435 10.3952 169.484 10.7974C169.499 11.114 169.433 11.4295 169.292 11.7184C169.151 12.0072 168.939 12.2612 168.672 12.46" fill="white"/>
</g>
<defs>
<clipPath id="clip0_1_1804">
<rect width="196.392" height="47.3444" fill="white" transform="translate(0.416992 0.806274)"/>
</clipPath>
</defs>
</svg>
