<svg width="64" height="61" viewBox="0 0 64 61" fill="none" xmlns="http://www.w3.org/2000/svg">
<g clip-path="url(#clip0_1_1602)">
<path d="M45.863 16.4579H60.8562L53.3685 3.48828L45.8809 16.4756L45.863 16.4579ZM32.0879 16.4579C30.4757 16.4579 29.0427 17.8557 29.0427 19.4482C29.0427 21.0406 30.4578 22.4384 32.0879 22.4384C33.718 22.4384 35.1331 21.0406 35.1331 19.4482C35.1331 17.8557 33.718 16.4579 32.0879 16.4579ZM45.451 18.4573C46.06 22.2438 49.4993 25.2518 53.5477 25.2518C57.596 25.2518 61.0353 22.2615 61.6443 18.4573H45.4331H45.451ZM3.33753 27.8528H18.3128L10.8252 14.8655L3.33753 27.8528ZM2.92554 29.8522C3.53458 33.6387 6.97387 36.6466 11.0222 36.6466C15.0705 36.6466 18.5098 33.6564 19.1189 29.8522H2.92554ZM27.2335 58.4101H37.1573C36.7453 56.2161 34.7211 54.4113 32.0879 54.4113C29.4547 54.4113 27.6276 56.2161 27.2335 58.4101ZM52.3475 60.4095H11.8462V58.4101H25.0123C25.4243 55.4199 27.8425 53.0135 31.0848 52.4119V24.4555C28.8636 24.0486 27.0364 22.0669 27.0364 19.6605C27.0364 17.2541 28.8636 15.2724 31.0848 14.8655V8.47796L12.4552 13.273L20.9639 27.8528C20.9639 28.0474 21.161 28.2597 21.161 28.2597C21.161 33.851 16.7006 38.2391 11.0401 38.2391C5.37962 38.2391 0.901367 33.8333 0.901367 28.242C0.901367 28.0474 0.901367 27.8351 1.09841 27.8351L10.2161 12.0698C10.4132 11.8752 10.6281 11.6629 10.8252 11.6629L53.3685 0.480315C53.7805 0.285683 54.3896 0.480315 54.5866 0.887275L63.7043 16.6702C63.7043 16.8649 63.9014 17.0772 63.9014 17.0772C63.9014 22.6685 59.441 27.0566 53.7805 27.0566C48.12 27.0566 43.6597 22.6685 43.6597 17.0772C43.6597 16.8826 43.6597 16.6702 43.8567 16.6702L51.7384 3.08132L33.503 7.87636V14.6708C35.7242 15.0778 37.5514 17.0595 37.5514 19.4659C37.5514 21.8722 35.7242 23.854 33.503 24.2609V52.4119C36.5482 52.8189 38.9665 55.2075 39.5755 58.4101H52.3296V60.4095H52.3475Z" fill="#07D68B"/>
</g>
<defs>
<clipPath id="clip0_1_1602">
<rect width="63" height="60" fill="white" transform="translate(0.901367 0.410156)"/>
</clipPath>
</defs>
</svg>
