<svg width="93" height="93" viewBox="0 0 93 93" fill="none" xmlns="http://www.w3.org/2000/svg">
<g filter="url(#filter0_d_1_1761)">
<rect x="4.00439" y="0.034668" width="84" height="84" rx="42" fill="#27B8BE"/>
</g>
<path fill-rule="evenodd" clip-rule="evenodd" d="M54.5608 37.3608H51.9008L46.5808 45.6588L45.9189 46.5892L45.2569 47.7334H46.8095L47.6882 47.9722L49.2408 48.8901L56.5587 37.5871L54.5608 37.3608ZM44.8115 55.5788V56.044L45.0282 56.5092L45.4735 56.7355H46.3642L46.8095 56.5092L47.0262 56.044V52.1213L46.8095 51.895L46.3642 51.6561L45.9189 51.4298L45.4735 51.6561L45.0282 51.895L44.8115 52.1213V55.5788ZM41.9349 54.1958L42.1516 53.278L42.3682 52.5865L42.5969 51.895L43.2589 51.2035L43.7042 50.7383L44.3662 50.512L45.0282 50.2731L45.9189 50.0468L46.8095 50.2731L47.4715 50.512L48.1335 50.7383L48.5788 51.2035L49.2408 51.895L49.4695 52.5865L49.6861 53.278L49.9028 54.1958L49.6861 54.8873L49.4695 55.8051L49.2408 56.5092L48.5788 56.9618L48.1335 57.427L47.4715 57.8922L46.8095 58.1185H45.0282L44.3662 57.8922L43.7042 57.427L43.2589 56.9618L42.5969 56.5092L42.3682 55.8051L42.1516 54.8873L41.9349 54.1958ZM37.7223 25.5926L37.939 27.2145L38.3843 28.8238L39.0463 30.4331L40.1536 31.5898L41.2609 32.7465L42.8136 33.4381L44.3662 33.9032L45.9189 34.1296L47.6882 33.9032L49.2408 33.4381L50.5768 32.7465L51.9008 31.5898L52.7915 30.4331L53.6701 28.8238L54.1154 27.2145L54.3441 25.5926L54.1154 23.7444L53.6701 22.1351L52.7915 20.7521L51.9008 19.3691L50.5768 18.4387L49.2408 17.5209L47.6882 17.0557L45.9189 16.8293L44.3662 17.0557L42.8136 17.5209L41.2609 18.4387L40.1536 19.3691L39.0463 20.7521L38.3843 22.1351L37.939 23.7444L37.7223 25.5926ZM35.279 37.5871L42.1516 48.4249L42.8136 47.2807L36.615 37.5871H35.279ZM38.6009 37.3608L43.9209 45.6588L44.5949 44.5147L39.9369 37.3608H38.6009ZM65.4173 53.5043V47.2807L64.9719 45.6588L64.31 44.0495L63.648 42.6665L62.7573 41.2835L61.4333 40.1268L60.0973 38.9701L58.7734 38.2786L58.5447 38.7438L51.0101 50.512L51.4555 51.4298L51.6841 52.1213L51.9008 53.0391L52.1174 54.1958L51.9008 55.3525L51.4555 56.5092L51.0101 57.6533L50.1315 58.5837L49.2408 59.5015L48.3501 59.9667L47.2428 60.4193H44.5949L43.4755 59.9667L42.5969 59.5015L41.7062 58.5837L40.8276 57.6533L40.3823 56.5092L39.9369 55.3525L39.7203 54.1958L39.9369 53.0391L40.1536 52.1213L40.3823 51.4298L40.8276 50.512L33.293 38.7438L33.0643 38.2786L31.7404 38.9701L30.4044 39.9005L29.2971 41.0446L28.1897 42.2013L27.5278 43.8106L26.8658 45.2062L26.4204 47.0419V53.5043L27.9731 55.5788L29.5257 57.6533L31.5117 59.5015L33.7263 61.1108V50.9646H36.615V62.7327L38.8296 63.6506L41.0443 64.1157L43.4755 64.5809L45.9189 64.8073L48.3501 64.5809L50.7935 64.1157L53.0081 63.6506L55.2227 62.7327V50.9646H58.328V61.1108L60.326 59.5015L62.312 57.6533L63.8646 55.5788L65.4173 53.5043ZM45.9189 42.4276L42.5969 37.3608H49.2408L45.9189 42.4276Z" fill="white"/>
<defs>
<filter id="filter0_d_1_1761" x="0.00439453" y="0.034668" width="92" height="92" filterUnits="userSpaceOnUse" color-interpolation-filters="sRGB">
<feFlood flood-opacity="0" result="BackgroundImageFix"/>
<feColorMatrix in="SourceAlpha" type="matrix" values="0 0 0 0 0 0 0 0 0 0 0 0 0 0 0 0 0 0 127 0" result="hardAlpha"/>
<feOffset dy="4"/>
<feGaussianBlur stdDeviation="2"/>
<feComposite in2="hardAlpha" operator="out"/>
<feColorMatrix type="matrix" values="0 0 0 0 0 0 0 0 0 0 0 0 0 0 0 0 0 0 0.25 0"/>
<feBlend mode="normal" in2="BackgroundImageFix" result="effect1_dropShadow_1_1761"/>
<feBlend mode="normal" in="SourceGraphic" in2="effect1_dropShadow_1_1761" result="shape"/>
</filter>
</defs>
</svg>
