<svg width="166" height="43" viewBox="0 0 166 43" fill="none" xmlns="http://www.w3.org/2000/svg">
<path d="M9.9052 0.577637C16.0437 0.577637 19.2239 4.29774 19.2239 10.8823V12.1472H13.2333V10.4359C13.2333 7.53424 12.087 6.381 10.0531 6.381C8.05625 6.381 6.9099 7.53424 6.9099 10.4359C6.9099 18.8806 19.2609 20.4802 19.2609 32.1985C19.2609 38.7459 16.0807 42.5032 9.83124 42.5032C3.5818 42.5404 0.401611 38.7831 0.401611 32.1985V29.6689H6.35522V32.645C6.35522 35.5466 7.6125 36.5883 9.64634 36.5883C11.6432 36.5883 12.9375 35.5466 12.9375 32.645C12.9375 24.1631 0.549527 22.5635 0.549527 10.8823C0.549527 4.29774 3.69274 0.577637 9.9052 0.577637Z" fill="white"/>
<path d="M29.2082 18.3596H37.9352V24.163H29.2082V36.2161H40.1909V42.0939H22.9218V1.02393H40.1909V6.90169H29.2082V18.3596Z" fill="white"/>
<path d="M64.597 42.0939H58.1997L57.1273 34.6537H49.3247L48.2523 42.0939H42.4467L48.881 1.02393H58.1257L64.597 42.0939ZM50.1383 29.0735H56.2398L53.1705 8.27813L50.1383 29.0735Z" fill="white"/>
<path d="M80.8307 42.0939C80.4979 41.0523 80.2391 40.4199 80.2391 37.0718V30.5988C80.2391 26.8043 78.9818 25.3534 76.0604 25.3534H73.8787V42.0939H67.5183V1.02393H77.0959C83.6411 1.02393 86.4515 4.14882 86.4515 10.4358V13.7095C86.4515 17.9132 85.1573 20.6661 82.3469 22.0053C85.4901 23.3818 86.5625 26.5067 86.5625 30.7848V37.109C86.5625 39.0806 86.5994 40.5687 87.2281 42.0939H80.8307ZM73.8787 6.90169V19.4757H76.3563C78.7229 19.4757 80.2021 18.434 80.2021 15.1231V11.1054C80.2021 8.20373 79.1667 6.90169 76.9479 6.90169H73.8787Z" fill="white"/>
<path d="M109.12 26.8044V32.1985C109.12 38.7459 105.866 42.5776 99.6901 42.5776C93.4406 42.5776 90.2605 38.7831 90.2605 32.1985V10.8823C90.2235 4.29774 93.4037 0.577637 99.6531 0.577637C105.866 0.577637 109.12 4.29774 109.12 10.8823V14.8256H103.129V10.4359C103.129 7.53424 101.872 6.381 99.838 6.381C97.8411 6.381 96.5839 7.53424 96.5839 10.4359V32.645C96.5839 35.5466 97.8411 36.5883 99.838 36.5883C101.872 36.5883 103.129 35.5466 103.129 32.645V26.8044H109.12Z" fill="white"/>
<path d="M119.289 42.0939H113.002V1.02393H119.289V18.5828H126.5V1.02393H132.934V42.0939H126.5V24.4606H119.289V42.0939Z" fill="white"/>
<path d="M136.595 37.2578H165.402V41.9451H136.595V37.2578Z" fill="#07D68B"/>
<path d="M164.033 1.06104L156.12 16.6855L164.588 33.1656H156.601L150.388 20.48L144.139 33.1656H137.002L145.507 16.6855L137.593 1.06104H145.433L151.165 12.9282L157.007 1.06104H164.033Z" fill="white"/>
</svg>
