<svg width="217" height="44" viewBox="0 0 217 44" fill="none" xmlns="http://www.w3.org/2000/svg">
<path fill-rule="evenodd" clip-rule="evenodd" d="M5.55478 0.466797C6.64886 0.466797 7.71837 0.787079 8.62806 1.38714C9.53775 1.9872 10.2468 2.84009 10.6655 3.83796C11.0841 4.83583 11.1937 5.93386 10.9803 6.99319C10.7668 8.05252 10.24 9.02558 9.46633 9.78932C8.69269 10.5531 7.70703 11.0732 6.63397 11.2839C5.56091 11.4946 4.44866 11.3864 3.43786 10.9731C2.42706 10.5598 1.56312 9.85983 0.95528 8.96177C0.347442 8.06372 0.0230103 7.00789 0.0230103 5.9278C0.0230103 4.47945 0.60582 3.09042 1.64323 2.06629C2.68064 1.04215 4.08766 0.466797 5.55478 0.466797Z" fill="white"/>
<path fill-rule="evenodd" clip-rule="evenodd" d="M21.6775 0.466797C22.7715 0.466797 23.841 0.787079 24.7507 1.38714C25.6604 1.9872 26.3695 2.84009 26.7881 3.83796C27.2068 4.83583 27.3164 5.93386 27.1029 6.99319C26.8895 8.05252 26.3626 9.02558 25.589 9.78932C24.8154 10.5531 23.8297 11.0732 22.7567 11.2839C21.6836 11.4946 20.5713 11.3864 19.5605 10.9731C18.5497 10.5598 17.6858 9.85983 17.078 8.96177C16.4701 8.06372 16.1457 7.00789 16.1457 5.9278C16.1457 4.47945 16.7285 3.09042 17.7659 2.06629C18.8033 1.04215 20.2103 0.466797 21.6775 0.466797Z" fill="white"/>
<path fill-rule="evenodd" clip-rule="evenodd" d="M37.7995 0.466797C38.8935 0.466797 39.9631 0.787079 40.8728 1.38714C41.7824 1.9872 42.4915 2.84009 42.9102 3.83796C43.3288 4.83583 43.4384 5.93386 43.2249 6.99319C43.0115 8.05252 42.4846 9.02558 41.711 9.78932C40.9374 10.5531 39.9517 11.0732 38.8787 11.2839C37.8056 11.4946 36.6933 11.3864 35.6826 10.9731C34.6718 10.5598 33.8078 9.85983 33.2 8.96177C32.5921 8.06372 32.2677 7.00789 32.2677 5.9278C32.2677 4.47945 32.8505 3.09042 33.8879 2.06629C34.9253 1.04215 36.3324 0.466797 37.7995 0.466797Z" fill="white"/>
<path fill-rule="evenodd" clip-rule="evenodd" d="M21.6765 16.7155C22.7706 16.7155 23.8401 17.0357 24.7498 17.6358C25.6595 18.2359 26.3685 19.0888 26.7872 20.0866C27.2059 21.0845 27.3155 22.1825 27.102 23.2418C26.8886 24.3012 26.3617 25.2742 25.5881 26.038C24.8145 26.8017 23.8288 27.3218 22.7557 27.5325C21.6827 27.7432 20.5704 27.6351 19.5596 27.2218C18.5488 26.8084 17.6849 26.1085 17.077 25.2104C16.4692 24.3124 16.1448 23.2565 16.1448 22.1765C16.1448 20.7281 16.7276 19.3391 17.765 18.3149C18.8024 17.2908 20.2094 16.7155 21.6765 16.7155Z" fill="white"/>
<path fill-rule="evenodd" clip-rule="evenodd" d="M5.55447 32.9476C6.64855 32.9476 7.71806 33.2679 8.62775 33.868C9.53745 34.468 10.2465 35.3209 10.6652 36.3188C11.0838 37.3167 11.1934 38.4147 10.9799 39.474C10.7665 40.5334 10.2397 41.5064 9.46602 42.2701C8.69239 43.0339 7.70672 43.554 6.63366 43.7647C5.56061 43.9754 4.44836 43.8673 3.43756 43.4539C2.42676 43.0406 1.56281 42.3407 0.954975 41.4426C0.347137 40.5445 0.0227051 39.4887 0.0227051 38.4086C0.0227051 36.9603 0.605515 35.5713 1.64292 34.5471C2.68033 33.523 4.08736 32.9476 5.55447 32.9476Z" fill="white"/>
<path fill-rule="evenodd" clip-rule="evenodd" d="M21.6765 32.9476C22.7706 32.9476 23.8401 33.2679 24.7498 33.868C25.6595 34.468 26.3685 35.3209 26.7872 36.3188C27.2059 37.3167 27.3155 38.4147 27.102 39.474C26.8886 40.5334 26.3617 41.5064 25.5881 42.2701C24.8145 43.0339 23.8288 43.554 22.7557 43.7647C21.6827 43.9754 20.5704 43.8673 19.5596 43.4539C18.5488 43.0406 17.6849 42.3407 17.077 41.4426C16.4692 40.5445 16.1448 39.4887 16.1448 38.4086C16.1448 36.9603 16.7276 35.5713 17.765 34.5471C18.8024 33.523 20.2094 32.9476 21.6765 32.9476Z" fill="white"/>
<path fill-rule="evenodd" clip-rule="evenodd" d="M37.7995 32.9476C38.8935 32.9476 39.9631 33.2679 40.8728 33.868C41.7824 34.468 42.4915 35.3209 42.9102 36.3188C43.3288 37.3167 43.4384 38.4147 43.2249 39.474C43.0115 40.5334 42.4846 41.5064 41.711 42.2701C40.9374 43.0339 39.9517 43.554 38.8787 43.7647C37.8056 43.9754 36.6933 43.8673 35.6826 43.4539C34.6718 43.0406 33.8078 42.3407 33.2 41.4426C32.5921 40.5445 32.2677 39.4887 32.2677 38.4086C32.2677 36.9603 32.8505 35.5713 33.8879 34.5471C34.9253 33.523 36.3324 32.9476 37.7995 32.9476" fill="white"/>
<path d="M70.5756 17.8901H58.6595C58.6211 17.8905 58.5834 17.8798 58.5511 17.8593C58.5188 17.8388 58.4933 17.8094 58.4777 17.7748C58.4621 17.7399 58.457 17.7013 58.463 17.6636C58.4691 17.6259 58.4861 17.5908 58.512 17.5624L70.7846 3.72791C70.8678 3.63413 70.9137 3.51368 70.9137 3.38898V2.47188C70.9148 2.4045 70.9025 2.33755 70.8774 2.2749C70.8522 2.21224 70.8148 2.1551 70.7672 2.10677C70.7197 2.05844 70.6629 2.01987 70.6002 1.99327C70.5374 1.96668 70.47 1.95257 70.4018 1.95178H56.3599C56.2223 1.9527 56.0907 2.00741 55.9939 2.10392C55.8972 2.20043 55.8431 2.33088 55.8436 2.46668V3.16014C55.8433 3.29571 55.8975 3.42584 55.9943 3.52203C56.0911 3.61822 56.2225 3.67261 56.3599 3.6733H67.9502C67.9883 3.67324 68.0256 3.68411 68.0576 3.70458C68.0895 3.72504 68.1148 3.75423 68.1302 3.78859C68.1457 3.82312 68.1508 3.86127 68.145 3.89858C68.1393 3.93588 68.1229 3.97079 68.0977 3.99922L55.848 17.8459C55.7646 17.9399 55.7187 18.0607 55.7189 18.1857V19.1037C55.7184 19.2392 55.7724 19.3693 55.8691 19.4655C55.9657 19.5617 56.097 19.6161 56.2343 19.6168H70.5765C70.6445 19.6166 70.7118 19.6031 70.7746 19.5772C70.8374 19.5513 70.8944 19.5135 70.9423 19.4658C70.9902 19.4182 71.0282 19.3616 71.054 19.2995C71.0799 19.2374 71.093 19.1708 71.0928 19.1037V18.4102C71.0938 18.3425 71.0813 18.2753 71.0558 18.2124C71.0304 18.1495 70.9926 18.0922 70.9446 18.0438C70.8965 17.9955 70.8393 17.957 70.7761 17.9306C70.7129 17.9042 70.6451 17.8904 70.5765 17.8901" fill="white"/>
<path d="M85.7599 3.65578H94.7652C94.8667 3.65475 94.9641 3.61614 95.0381 3.54758C95.112 3.47903 95.1573 3.38554 95.1647 3.28564L95.2271 2.50551C95.2317 2.45164 95.2252 2.39741 95.2082 2.34604C95.1911 2.29467 95.1638 2.24721 95.1279 2.20645C95.0928 2.16601 95.0496 2.13307 95.0012 2.10967C94.9527 2.08627 94.8999 2.07289 94.846 2.07035C91.7886 1.92993 88.5688 1.92993 85.4508 1.92993C83.1239 1.92993 81.5583 3.14349 81.5583 4.95515V16.6174C81.5583 18.4256 83.123 19.6426 85.4508 19.6426C88.5644 19.6426 91.7842 19.6426 94.846 19.5039C94.8999 19.5014 94.9527 19.488 95.0012 19.4646C95.0496 19.4412 95.0928 19.4083 95.1279 19.3679C95.1637 19.327 95.1909 19.2795 95.208 19.2282C95.225 19.1768 95.2315 19.1227 95.2271 19.0688L95.1647 18.2887C95.1573 18.1888 95.112 18.0953 95.0381 18.0267C94.9641 17.9582 94.8667 17.9196 94.7652 17.9185H85.7599C84.9248 17.9185 83.5234 17.7044 83.5234 16.2716V11.1573C83.5234 11.1355 83.5317 11.1144 83.5466 11.0983C83.5616 11.0823 83.5822 11.0724 83.6042 11.0706H93.4332C93.5403 11.0699 93.6427 11.0274 93.718 10.9523C93.7934 10.8773 93.8356 10.7758 93.8354 10.6701V9.82411C93.8356 9.71851 93.7934 9.61712 93.718 9.54221C93.6426 9.46729 93.5402 9.42496 93.4332 9.4245H83.6042C83.5817 9.42339 83.5605 9.41377 83.545 9.39763C83.5294 9.3815 83.5208 9.36008 83.5208 9.33782V5.32875C83.5208 3.87162 84.9257 3.65318 85.7572 3.65318" fill="white"/>
<path d="M121.878 2.36506H121.038C120.965 2.36505 120.892 2.37946 120.824 2.40745C120.756 2.43544 120.694 2.47644 120.642 2.52811C120.59 2.57977 120.55 2.64107 120.522 2.70846C120.494 2.77584 120.48 2.84797 120.481 2.92069V15.7974C120.481 16.5775 120.505 17.3629 120.528 18.1283L119.982 18.1378C119.973 18.1365 119.964 18.1331 119.956 18.1279C119.948 18.1226 119.941 18.1156 119.937 18.1075C119.221 16.9927 118.996 16.6252 118.871 16.4224C118.761 16.2386 118.729 16.1892 118.504 15.8572L109.504 2.99524C109.414 2.80385 109.27 2.64238 109.089 2.53049C108.908 2.4186 108.698 2.36113 108.484 2.36506H106.991C106.654 2.36712 106.332 2.50096 106.095 2.73722C105.858 2.97349 105.726 3.2929 105.727 3.62542V19.4753C105.726 19.548 105.74 19.6202 105.768 19.6876C105.796 19.755 105.836 19.8162 105.888 19.8679C105.94 19.9196 106.002 19.9606 106.07 19.9886C106.138 20.0166 106.211 20.031 106.284 20.031H107.101C107.175 20.031 107.248 20.0166 107.316 19.9886C107.384 19.9606 107.445 19.9196 107.497 19.8679C107.549 19.8162 107.59 19.755 107.618 19.6876C107.645 19.6202 107.659 19.548 107.659 19.4753V6.14788C107.659 5.5099 107.659 4.84764 107.639 4.22006H108.106C108.481 4.91249 108.892 5.58572 109.336 6.23717L118.58 19.3938C118.658 19.5896 118.797 19.7563 118.976 19.8707C119.155 19.9851 119.366 20.0414 119.579 20.0318H121.173C121.51 20.0293 121.832 19.8951 122.069 19.6585C122.306 19.422 122.438 19.1024 122.437 18.7697V2.92242C122.438 2.8497 122.424 2.77757 122.396 2.71019C122.369 2.6428 122.328 2.58151 122.276 2.52984C122.224 2.47818 122.162 2.43717 122.094 2.40918C122.026 2.38119 121.953 2.36679 121.88 2.36679" fill="white"/>
<path d="M134.144 1.95508H133.548C133.37 1.95622 133.2 2.02702 133.074 2.15195C132.949 2.27689 132.879 2.44579 132.879 2.62167V18.9527C132.879 19.1285 132.949 19.2975 133.074 19.4224C133.2 19.5473 133.37 19.6181 133.548 19.6193H134.144C134.322 19.6181 134.492 19.5473 134.617 19.4223C134.743 19.2974 134.812 19.1285 134.812 18.9527V2.62427C134.812 2.44854 134.742 2.27976 134.617 2.15485C134.492 2.02994 134.322 1.95906 134.144 1.95768" fill="white"/>
<path d="M161.799 1.95511H146.017C145.819 1.95626 145.63 2.03496 145.491 2.17393C145.351 2.3129 145.274 2.50076 145.275 2.69625V2.99444C145.275 3.18934 145.353 3.37631 145.492 3.51452C145.631 3.65274 145.82 3.73096 146.017 3.73211H152.491C152.604 3.7328 152.711 3.77745 152.79 3.85627C152.869 3.93509 152.913 4.04163 152.913 4.15252V18.879C152.912 19.0745 152.99 19.2624 153.129 19.4013C153.268 19.5403 153.458 19.619 153.656 19.6202H154.132C154.33 19.619 154.519 19.5403 154.658 19.4013C154.798 19.2624 154.875 19.0745 154.874 18.879V4.15165C154.874 4.04076 154.918 3.93422 154.997 3.8554C155.076 3.77658 155.184 3.73193 155.296 3.73124H161.799C161.996 3.7301 162.185 3.65187 162.324 3.51366C162.464 3.37544 162.542 3.18847 162.542 2.99358V2.69365C162.543 2.49816 162.465 2.3103 162.326 2.17133C162.186 2.03237 161.997 1.95366 161.799 1.95251" fill="white"/>
<path d="M188.731 1.79736H187.156C187.05 1.79782 186.945 1.81895 186.847 1.85954C186.749 1.90014 186.66 1.9594 186.585 2.03395C186.51 2.1085 186.451 2.19686 186.411 2.29399C186.371 2.39113 186.351 2.49513 186.351 2.60004V8.64268C186.351 8.66446 186.347 8.68606 186.339 8.70624C186.331 8.72643 186.318 8.74478 186.303 8.76026C186.287 8.77574 186.269 8.78803 186.249 8.79642C186.228 8.8048 186.206 8.80912 186.184 8.80911H176.39C176.368 8.80911 176.346 8.8048 176.326 8.79643C176.306 8.78806 176.287 8.77578 176.272 8.76031C176.256 8.74485 176.244 8.7265 176.235 8.70631C176.227 8.68612 176.223 8.6645 176.223 8.64268V2.60091C176.223 2.49599 176.203 2.392 176.163 2.29487C176.123 2.19773 176.063 2.10936 175.989 2.03482C175.914 1.96027 175.825 1.901 175.727 1.86041C175.629 1.81981 175.524 1.79868 175.418 1.79823H173.843C173.737 1.79868 173.632 1.81981 173.534 1.86041C173.436 1.901 173.347 1.96027 173.272 2.03482C173.197 2.10936 173.138 2.19773 173.098 2.29487C173.058 2.392 173.037 2.49599 173.038 2.60091V18.9726C173.037 19.0776 173.058 19.1816 173.098 19.2787C173.138 19.3758 173.197 19.4642 173.272 19.5387C173.347 19.6133 173.436 19.6726 173.534 19.7131C173.632 19.7537 173.737 19.7749 173.843 19.7753H175.418C175.524 19.7749 175.629 19.7537 175.727 19.7131C175.825 19.6726 175.914 19.6133 175.989 19.5387C176.063 19.4642 176.123 19.3758 176.163 19.2787C176.203 19.1816 176.223 19.0776 176.223 18.9726V11.778C176.223 11.7339 176.24 11.6916 176.272 11.6603C176.303 11.629 176.346 11.6112 176.39 11.6107H186.18C186.202 11.6108 186.224 11.6152 186.244 11.6237C186.265 11.6322 186.283 11.6446 186.299 11.6601C186.314 11.6757 186.326 11.6941 186.335 11.7143C186.343 11.7345 186.347 11.7562 186.347 11.778V18.9726C186.346 19.0776 186.366 19.1816 186.407 19.2787C186.447 19.3758 186.506 19.4642 186.581 19.5387C186.656 19.6133 186.744 19.6726 186.842 19.7131C186.94 19.7537 187.046 19.7749 187.152 19.7753H188.726C188.833 19.7749 188.938 19.7537 189.036 19.7131C189.134 19.6726 189.223 19.6133 189.297 19.5387C189.372 19.4642 189.431 19.3758 189.471 19.2787C189.512 19.1816 189.532 19.0776 189.531 18.9726V2.60091C189.532 2.49599 189.512 2.392 189.471 2.29487C189.431 2.19773 189.372 2.10936 189.297 2.03482C189.223 1.96027 189.134 1.901 189.036 1.86041C188.938 1.81981 188.833 1.79868 188.726 1.79823" fill="white"/>
<path d="M215.425 18.3736L213.566 13.8375C213.409 13.332 213.151 12.863 212.805 12.4592C212.46 12.0554 212.035 11.7251 211.556 11.4884C213.909 10.9787 214.969 9.55195 214.969 6.96448C214.969 2.55147 212.236 1.68811 207.514 1.68811C204.329 1.68811 202.592 1.70545 200.407 1.86668C200.169 1.88514 199.947 1.99114 199.784 2.16371C199.622 2.33628 199.531 2.56283 199.529 2.79851V18.7264C199.53 18.9745 199.63 19.2122 199.808 19.3873C199.986 19.5625 200.227 19.6609 200.478 19.6609H201.743C201.994 19.6609 202.235 19.5625 202.413 19.3873C202.59 19.2121 202.69 18.9744 202.691 18.7264V12.9057C202.691 12.8649 202.699 12.8245 202.715 12.7869C202.73 12.7492 202.754 12.715 202.783 12.6864C202.81 12.6559 202.843 12.6322 202.881 12.6171C202.919 12.602 202.959 12.5961 203 12.5997C204.202 12.6153 205.716 12.6153 207.591 12.6153C209.058 12.6153 209.874 13.06 210.394 14.1236L212.284 19.0593C212.352 19.2374 212.473 19.3908 212.632 19.4991C212.79 19.6075 212.979 19.6657 213.171 19.6661H214.551C214.706 19.6661 214.858 19.6286 214.995 19.5568C215.132 19.4851 215.249 19.3813 215.335 19.2545C215.422 19.1278 215.476 18.982 215.492 18.8299C215.509 18.6779 215.487 18.5241 215.429 18.3823M211.758 7.12051C211.758 9.21909 210.792 9.83281 207.461 9.85708H203.003C202.92 9.85708 202.842 9.82484 202.783 9.76746C202.725 9.71007 202.693 9.63224 202.693 9.55109V4.78354C202.693 4.70314 202.725 4.62596 202.782 4.5687C202.839 4.51144 202.917 4.4787 202.998 4.47756L204.328 4.46889C205.263 4.46195 206.321 4.45415 207.466 4.45415C210.838 4.45415 211.76 5.02626 211.76 7.11704" fill="white"/>
<path d="M58.0045 38.6366V36.1497H61.9171V35.2144H58.0045V32.8471H62.3948V31.8936H56.8893V39.597H62.5519V38.6435L58.0045 38.6366ZM73.7112 33.707C73.2714 33.6871 72.8334 33.7752 72.4365 33.9634C72.0397 34.1516 71.6963 34.434 71.437 34.7853C71.2324 34.4334 70.9314 34.1456 70.5686 33.9548C70.2058 33.7641 69.7959 33.6782 69.3859 33.707C68.9954 33.6849 68.6055 33.7576 68.25 33.9187C67.8946 34.0797 67.5846 34.3243 67.347 34.631V33.7642H66.3197V39.597H67.39V36.59C67.3536 36.3433 67.3728 36.0917 67.4462 35.8531C67.5197 35.6146 67.6456 35.395 67.8149 35.21C67.9843 35.025 68.1929 34.8792 68.4259 34.783C68.6589 34.6869 68.9105 34.6426 69.1628 34.6535C70.1287 34.6535 70.6898 35.2144 70.6898 36.3594V39.5944H71.7584V36.59C71.7219 36.3433 71.7411 36.0917 71.8146 35.8531C71.888 35.6146 72.0139 35.395 72.1833 35.21C72.3526 35.025 72.5612 34.8792 72.7942 34.783C73.0272 34.6869 73.2789 34.6426 73.5312 34.6535C74.497 34.6535 75.0581 35.2144 75.0581 36.3594V39.5944H76.1276V36.2372C76.1734 35.9067 76.1437 35.5702 76.0407 35.2525C75.9376 34.9348 75.7637 34.6439 75.5319 34.4011C75.3001 34.1584 75.0162 33.97 74.7009 33.8497C74.3857 33.7294 74.0472 33.6804 73.7103 33.7061L73.7112 33.707ZM83.3531 33.707C82.9481 33.6903 82.5449 33.7705 82.178 33.9408C81.8111 34.111 81.4913 34.3662 81.2458 34.6847V33.7616H80.2202V41.7286H81.2906V38.7137C81.5353 39.0199 81.8494 39.2651 82.2077 39.4295C82.5659 39.594 82.9583 39.673 83.3531 39.6603C83.7527 39.677 84.1515 39.611 84.5237 39.4667C84.896 39.3223 85.2336 39.1028 85.5149 38.8221C85.7962 38.5413 86.015 38.2055 86.1571 37.8364C86.2992 37.4672 86.3616 37.0728 86.3403 36.6784C86.3605 36.2848 86.2972 35.8913 86.1544 35.5233C86.0117 35.1552 85.7927 34.8206 85.5114 34.5408C85.2301 34.2611 84.8928 34.0425 84.521 33.8989C84.1492 33.7553 83.7511 33.6899 83.3523 33.707H83.3531ZM83.2653 38.7345C82.9948 38.7391 82.7262 38.6882 82.4767 38.5849C82.2271 38.4816 82.002 38.3283 81.8157 38.1347C81.6295 37.9413 81.486 37.7118 81.3943 37.4609C81.3025 37.2099 81.2645 36.9429 81.2827 36.6767C81.2657 36.4112 81.3046 36.1452 81.3969 35.8953C81.4893 35.6454 81.633 35.4171 81.8192 35.2248C82.0054 35.0325 82.23 34.8804 82.4787 34.778C82.7275 34.6757 82.995 34.6253 83.2645 34.6301C83.5347 34.6238 83.8033 34.6729 84.0533 34.7744C84.3033 34.8759 84.5292 35.0274 84.7168 35.2196C84.9047 35.4121 85.05 35.6412 85.1434 35.8922C85.2368 36.1432 85.2763 36.4107 85.2594 36.6776C85.2776 36.9451 85.2391 37.2135 85.1464 37.4655C85.0537 37.7176 84.9089 37.9479 84.7212 38.1416C84.5338 38.3361 84.3074 38.4899 84.0564 38.5932C83.8054 38.6965 83.5354 38.747 83.2636 38.7415L83.2653 38.7345ZM89.9386 39.5901H91.0107V31.4246H89.9412L89.9386 39.5901ZM97.6971 39.656C98.1006 39.6733 98.5033 39.6083 98.8803 39.4651C99.2572 39.322 99.6002 39.1037 99.8879 38.8238C100.176 38.5443 100.403 38.2091 100.554 37.8393C100.705 37.4694 100.777 37.0728 100.766 36.6741C100.777 36.2761 100.705 35.8801 100.554 35.511C100.403 35.1418 100.176 34.8074 99.8879 34.5287C99.6001 34.2499 99.2572 34.0327 98.8806 33.8907C98.5039 33.7487 98.1016 33.685 97.6989 33.7035C97.2952 33.6846 96.892 33.748 96.5143 33.8899C96.1366 34.0317 95.7926 34.2489 95.5037 34.5278C95.215 34.8066 94.9875 35.1412 94.8355 35.5106C94.6836 35.88 94.6103 36.2764 94.6204 36.675C94.6096 37.0738 94.682 37.4706 94.833 37.8407C94.9841 38.2108 95.2106 38.5463 95.4984 38.8264C95.7874 39.1073 96.132 39.3263 96.5106 39.4698C96.8892 39.6133 97.2937 39.6781 97.6989 39.6603L97.6971 39.656ZM97.6971 38.7319C97.4257 38.7379 97.1561 38.688 96.9053 38.5855C96.6545 38.483 96.4281 38.33 96.2404 38.1364C96.0527 37.9429 95.9079 37.713 95.815 37.4612C95.7222 37.2095 95.6835 36.9414 95.7013 36.6741C95.6836 36.4074 95.7225 36.1399 95.8155 35.8889C95.9085 35.6378 96.0535 35.4087 96.2413 35.2161C96.429 35.0235 96.6554 34.8717 96.9059 34.7703C97.1564 34.669 97.4256 34.6204 97.6962 34.6275C97.9662 34.6209 98.2347 34.6701 98.4843 34.7719C98.734 34.8737 98.9593 35.0259 99.1459 35.2187C99.3324 35.4115 99.4761 35.6406 99.5677 35.8914C99.6594 36.1421 99.6969 36.409 99.678 36.675C99.698 36.9415 99.6614 37.2092 99.5707 37.4609C99.48 37.7127 99.3371 37.9431 99.1512 38.1373C98.9651 38.3323 98.7398 38.4869 98.4897 38.5909C98.2396 38.6949 97.9702 38.7462 97.6989 38.7415L97.6971 38.7319ZM108.379 33.7616L106.338 38.4277L104.276 33.7616H103.16L105.769 39.5832L105.579 39.9906C105.29 40.6632 104.965 40.8929 104.454 40.8929C104.058 40.8927 103.677 40.7389 103.395 40.4647L102.937 41.2596C103.357 41.6199 103.899 41.8111 104.456 41.7953C105.358 41.7953 106.036 41.4104 106.563 40.1778L109.426 33.7633L108.379 33.7616ZM117.72 36.7088C117.747 36.3174 117.691 35.9247 117.555 35.5561C117.418 35.1876 117.206 34.8512 116.93 34.5686C116.655 34.2852 116.324 34.0616 115.956 33.9123C115.589 33.7631 115.194 33.6913 114.796 33.7018C114.4 33.6919 114.007 33.7623 113.639 33.9085C113.272 34.0548 112.939 34.2738 112.661 34.5521C112.383 34.8308 112.166 35.1627 112.024 35.5274C111.881 35.8921 111.815 36.2817 111.831 36.6724C111.821 37.0799 111.898 37.4849 112.056 37.8614C112.214 38.2379 112.451 38.5776 112.75 38.8585C113.049 39.1395 113.405 39.3554 113.793 39.4925C114.182 39.6295 114.596 39.6846 115.008 39.6542C115.442 39.6746 115.876 39.6003 116.278 39.4368C116.68 39.2732 117.041 39.0243 117.335 38.7077L116.747 38.0255C116.533 38.2591 116.27 38.4441 115.976 38.5677C115.683 38.6913 115.366 38.7506 115.047 38.7415C114.537 38.781 114.031 38.6262 113.633 38.309C113.235 37.9917 112.975 37.536 112.907 37.0356H117.7C117.71 36.9307 117.719 36.7989 117.719 36.7105L117.72 36.7088ZM114.799 34.5981C115.272 34.5836 115.732 34.7491 116.085 35.0604C116.438 35.3716 116.656 35.8047 116.694 36.2702H112.904C112.942 35.8045 113.16 35.3712 113.513 35.0598C113.866 34.7484 114.326 34.5828 114.799 34.5972V34.5981ZM126.66 36.7105C126.687 36.3191 126.63 35.9265 126.494 35.5579C126.358 35.1893 126.145 34.8529 125.87 34.5703C125.595 34.2869 125.263 34.0634 124.896 33.9141C124.528 33.7648 124.133 33.6931 123.736 33.7035C123.34 33.6936 122.946 33.764 122.579 33.9103C122.212 34.0565 121.879 34.2756 121.6 34.5538C121.323 34.8325 121.106 35.1644 120.963 35.5291C120.82 35.8938 120.755 36.2835 120.771 36.6741C120.761 37.0816 120.837 37.4866 120.996 37.8631C121.154 38.2396 121.39 38.5793 121.689 38.8602C121.988 39.1412 122.344 39.3572 122.733 39.4942C123.122 39.6313 123.536 39.6864 123.948 39.656C124.382 39.6767 124.817 39.6026 125.219 39.439C125.622 39.2755 125.983 39.0263 126.277 38.7094L125.686 38.0272C125.471 38.2611 125.208 38.4461 124.914 38.5694C124.619 38.6928 124.301 38.7515 123.982 38.7415C123.472 38.781 122.966 38.6262 122.568 38.309C122.17 37.9917 121.91 37.536 121.842 37.0356H126.635C126.647 36.9341 126.657 36.8024 126.657 36.714L126.66 36.7105ZM123.739 34.5981C124.212 34.5836 124.673 34.7493 125.026 35.0607C125.378 35.3721 125.596 35.8054 125.634 36.271H121.844C121.882 35.8054 122.1 35.3721 122.452 35.0607C122.805 34.7493 123.266 34.5836 123.739 34.5981H123.739ZM136.647 38.6366V36.1497H140.56V35.2144H136.648V32.8471H141.038V31.8936H135.533V39.597H141.192V38.6435L136.647 38.6366ZM149.812 39.5901L147.458 36.6082L149.688 33.7581H148.517L146.899 35.8645L145.271 33.7616H144.079L146.297 36.6117L143.967 39.5936H145.16L146.888 37.3598L148.593 39.5936L149.812 39.5901ZM156.232 33.7026C155.827 33.686 155.424 33.7662 155.057 33.9364C154.69 34.1067 154.37 34.3619 154.125 34.6804V33.7572H153.099V41.7242H154.169V38.7137C154.414 39.0199 154.728 39.2651 155.086 39.4295C155.445 39.594 155.837 39.673 156.232 39.6603C156.631 39.6768 157.03 39.6106 157.402 39.4661C157.774 39.3216 158.112 39.102 158.393 38.8212C158.674 38.5405 158.893 38.2049 159.035 37.8359C159.177 37.4669 159.239 37.0727 159.218 36.6784C159.238 36.2848 159.175 35.8913 159.032 35.5233C158.89 35.1552 158.671 34.8206 158.389 34.5408C158.108 34.2611 157.771 34.0425 157.399 33.8989C157.027 33.7553 156.629 33.6899 156.23 33.707L156.232 33.7026ZM156.144 38.7302C155.874 38.7345 155.606 38.6835 155.356 38.5802C155.107 38.477 154.882 38.3238 154.696 38.1304C154.51 37.937 154.367 37.7075 154.275 37.4566C154.183 37.2056 154.145 36.9386 154.163 36.6724C154.146 36.4069 154.185 36.1408 154.278 35.8909C154.37 35.6411 154.514 35.4128 154.7 35.2204C154.886 35.0282 155.111 34.876 155.359 34.7737C155.608 34.6714 155.876 34.621 156.145 34.6258C156.415 34.6195 156.684 34.6687 156.934 34.7703C157.185 34.8719 157.411 35.0237 157.598 35.2161C157.786 35.4086 157.931 35.6374 158.024 35.8881C158.117 36.1388 158.157 36.4058 158.14 36.6724C158.158 36.9397 158.119 37.2078 158.026 37.4595C157.933 37.7113 157.789 37.9412 157.601 38.1347C157.414 38.3303 157.188 38.4854 156.937 38.5898C156.687 38.6943 156.416 38.746 156.144 38.7415V38.7302ZM168.159 36.7131C168.186 36.3219 168.131 35.9294 167.995 35.5606C167.86 35.1919 167.648 34.8552 167.374 34.572C167.099 34.2887 166.767 34.0653 166.4 33.916C166.033 33.7667 165.638 33.6949 165.241 33.7052C164.845 33.6954 164.451 33.7657 164.084 33.912C163.717 34.0583 163.384 34.2773 163.105 34.5556C162.828 34.8343 162.611 35.1662 162.468 35.5309C162.325 35.8955 162.26 36.2852 162.276 36.6758C162.266 37.0833 162.342 37.4884 162.5 37.8649C162.659 38.2414 162.895 38.581 163.194 38.862C163.493 39.1429 163.849 39.3589 164.238 39.4959C164.627 39.633 165.041 39.6881 165.452 39.6577C165.887 39.6784 166.321 39.6044 166.724 39.4408C167.127 39.2772 167.488 39.0281 167.782 38.7111L167.191 38.0289C166.976 38.2627 166.712 38.4476 166.417 38.5706C166.123 38.6936 165.805 38.7519 165.485 38.7415C164.975 38.781 164.469 38.6262 164.071 38.309C163.673 37.9917 163.413 37.536 163.345 37.0356H168.138C168.15 36.9341 168.16 36.8024 168.16 36.714L168.159 36.7131ZM165.241 34.5981C165.714 34.5836 166.174 34.7493 166.527 35.0607C166.88 35.3721 167.098 35.8054 167.136 36.271H163.345C163.383 35.8054 163.601 35.3721 163.954 35.0607C164.307 34.7493 164.767 34.5836 165.24 34.5981H165.241ZM172.788 34.7411V33.7633H171.762V39.5944H172.833V36.6888C172.798 36.4334 172.821 36.1736 172.9 35.928C172.979 35.6824 173.113 35.4573 173.291 35.2689C173.469 35.0804 173.687 34.9334 173.93 34.8384C174.172 34.7434 174.434 34.7027 174.694 34.7194C174.777 34.7178 174.859 34.7216 174.942 34.7307V33.707C174.52 33.6622 174.095 33.7355 173.714 33.9184C173.333 34.1013 173.012 34.3864 172.788 34.7411V34.7411ZM178.908 32.639C179.003 32.6421 179.098 32.6261 179.186 32.592C179.275 32.5579 179.355 32.5063 179.423 32.4405C179.491 32.3745 179.544 32.2956 179.58 32.2086C179.616 32.1216 179.634 32.0283 179.632 31.9343C179.631 31.8428 179.61 31.7525 179.573 31.6689C179.535 31.5852 179.481 31.5098 179.414 31.4471C179.346 31.3844 179.267 31.3357 179.18 31.3039C179.093 31.272 179 31.2576 178.908 31.2616C178.814 31.2589 178.72 31.2749 178.633 31.3085C178.545 31.3422 178.465 31.3928 178.398 31.4575C178.33 31.5221 178.276 31.5994 178.239 31.6849C178.203 31.7703 178.184 31.8622 178.183 31.9551C178.184 32.0475 178.203 32.1389 178.24 32.2238C178.277 32.3087 178.331 32.3854 178.399 32.4492C178.466 32.513 178.546 32.5627 178.634 32.5953C178.721 32.628 178.814 32.6428 178.908 32.639V32.639ZM178.373 39.5936H179.443V33.7607H178.373V39.5936ZM188.941 36.7105C188.967 36.3189 188.911 35.9262 188.775 35.5574C188.639 35.1887 188.426 34.8521 188.15 34.5694C187.875 34.2859 187.544 34.0623 187.176 33.913C186.808 33.7637 186.413 33.6921 186.016 33.7026C185.62 33.6928 185.226 33.7631 184.859 33.9094C184.491 34.0557 184.158 34.2747 183.88 34.553C183.603 34.8317 183.386 35.1636 183.243 35.5283C183.1 35.8929 183.035 36.2826 183.051 36.6732C183.041 37.0807 183.117 37.4858 183.275 37.8623C183.433 38.2388 183.67 38.5785 183.969 38.8594C184.268 39.1403 184.624 39.3563 185.013 39.4933C185.402 39.6304 185.815 39.6855 186.227 39.6551C186.662 39.6758 187.096 39.6018 187.499 39.4382C187.902 39.2746 188.263 39.0255 188.557 38.7085L187.966 38.0263C187.751 38.2587 187.487 38.4422 187.193 38.5641C186.899 38.6861 186.581 38.7437 186.262 38.7328C185.754 38.7708 185.251 38.616 184.854 38.3C184.458 37.984 184.198 37.5305 184.129 37.0321H188.922C188.928 36.9307 188.939 36.7989 188.939 36.7105H188.941ZM186.017 34.5981C186.49 34.5836 186.951 34.7493 187.304 35.0607C187.656 35.3721 187.874 35.8054 187.912 36.271H184.123C184.161 35.8054 184.379 35.3721 184.731 35.0607C185.084 34.7493 185.545 34.5836 186.017 34.5981V34.5981ZM195.695 33.707C195.29 33.6831 194.885 33.7557 194.514 33.9184C194.144 34.0812 193.818 34.3294 193.565 34.6423V33.7616H192.54V39.5944H193.612V36.59C193.58 36.3358 193.607 36.0778 193.688 35.8347C193.77 35.5916 193.905 35.3694 194.084 35.184C194.263 34.9988 194.482 34.8551 194.724 34.7633C194.966 34.6714 195.226 34.6336 195.485 34.6527C196.499 34.6527 197.078 35.2135 197.078 36.3586V39.5936H198.149V36.2372C198.191 35.9043 198.157 35.5662 198.05 35.2477C197.943 34.9292 197.766 34.6381 197.531 34.3958C197.296 34.1534 197.009 33.9657 196.692 33.8464C196.374 33.7271 196.033 33.6792 195.695 33.7061V33.707ZM204.86 39.6603C205.339 39.6866 205.816 39.5837 206.24 39.3627C206.664 39.1418 207.019 38.8111 207.267 38.406L206.453 37.8998C206.282 38.1656 206.043 38.383 205.761 38.5305C205.479 38.678 205.163 38.7507 204.844 38.7415C204.57 38.752 204.297 38.7055 204.042 38.605C203.787 38.5045 203.557 38.3522 203.365 38.1581C203.174 37.9642 203.026 37.7329 202.931 37.479C202.837 37.2252 202.797 36.9545 202.815 36.6845C202.799 36.4152 202.84 36.1456 202.935 35.8928C203.031 35.6401 203.179 35.4099 203.37 35.217C203.561 35.024 203.79 34.8726 204.044 34.7724C204.298 34.6723 204.57 34.6256 204.843 34.6353C205.162 34.6254 205.478 34.6972 205.76 34.8438C206.042 34.9904 206.281 35.2068 206.453 35.4718L207.265 34.9517C207.016 34.5479 206.66 34.2188 206.236 33.9996C205.812 33.7805 205.335 33.6796 204.857 33.7078C204.451 33.6846 204.044 33.7447 203.662 33.8844C203.28 34.024 202.931 34.2401 202.638 34.5192C202.345 34.7983 202.114 35.1343 201.958 35.5061C201.803 35.8779 201.728 36.2773 201.736 36.6793C201.727 37.0823 201.802 37.4828 201.957 37.8557C202.112 38.2287 202.343 38.5659 202.636 38.8464C202.93 39.1267 203.278 39.3441 203.661 39.4851C204.043 39.6261 204.45 39.6875 204.858 39.6655L204.86 39.6603ZM216.015 36.7131C216.042 36.3217 215.986 35.9291 215.85 35.5605C215.714 35.1919 215.501 34.8555 215.225 34.5729C214.95 34.2895 214.619 34.066 214.251 33.9167C213.884 33.7674 213.489 33.6957 213.092 33.7061C212.696 33.6962 212.302 33.7666 211.935 33.9129C211.567 34.0591 211.234 34.2782 210.956 34.5564C210.678 34.8351 210.461 35.167 210.319 35.5317C210.176 35.8964 210.111 36.2861 210.126 36.6767C210.116 37.0842 210.193 37.4892 210.351 37.8657C210.509 38.2422 210.746 38.5819 211.045 38.8628C211.344 39.1438 211.7 39.3598 212.089 39.4968C212.478 39.6339 212.891 39.689 213.303 39.6586C213.738 39.6793 214.172 39.6052 214.575 39.4416C214.977 39.2781 215.339 39.0289 215.633 38.712L215.042 38.0298C214.827 38.2629 214.564 38.4472 214.27 38.5701C213.976 38.6929 213.659 38.7514 213.34 38.7415C212.83 38.781 212.324 38.6262 211.926 38.309C211.528 37.9917 211.268 37.536 211.2 37.0356H215.993C216.002 36.9307 216.015 36.7989 216.015 36.7105V36.7131ZM213.095 34.5981C213.568 34.5836 214.028 34.7493 214.381 35.0607C214.734 35.3721 214.952 35.8054 214.99 36.271H211.2C211.238 35.8054 211.456 35.3721 211.809 35.0607C212.162 34.7493 212.622 34.5836 213.095 34.5981V34.5981Z" fill="white"/>
</svg>
