<svg width="61" height="57" viewBox="0 0 61 57" fill="none" xmlns="http://www.w3.org/2000/svg">
<g clip-path="url(#clip0_1_1595)">
<path d="M16.2913 2.29422C8.43827 2.29422 2.07334 8.71294 2.07334 16.6198C2.07334 31.2143 26.1525 50.8291 30.3659 54.146C34.5434 50.596 58.7123 29.4572 58.7123 16.6198C58.7123 8.71294 52.3294 2.29422 44.4943 2.29422C38.6672 2.29422 33.5035 5.80838 31.3162 11.241L30.4018 13.518L29.4874 11.241C27.3 5.79045 22.1363 2.29422 16.3093 2.29422H16.2913ZM30.4197 56.7099L29.8101 56.2258C28.5909 55.3114 0.101107 33.5093 0.101107 16.6198C0.083178 7.61925 7.34458 0.286133 16.2913 0.286133C22.208 0.286133 27.5331 3.45963 30.4018 8.56951C33.2705 3.49549 38.5776 0.286133 44.5122 0.286133C53.4589 0.286133 60.7203 7.61925 60.7203 16.6198C60.7203 31.537 32.2485 55.2038 31.0472 56.2079L30.4556 56.7099H30.4376H30.4197Z" fill="#07D68B"/>
<path d="M27.0489 35.6787L21.3653 29.9234L22.7638 28.507L27.0489 32.8459L38.0038 21.8193L39.3843 23.2358L27.0489 35.6787Z" fill="#07D68B"/>
</g>
<defs>
<clipPath id="clip0_1_1595">
<rect width="60.6013" height="56.4238" fill="white" transform="translate(0.101074 0.286133)"/>
</clipPath>
</defs>
</svg>
