<svg width="174" height="115" viewBox="0 0 174 115" fill="none" xmlns="http://www.w3.org/2000/svg">
<path d="M121.913 65.0469V65.1341C121.913 72.9843 116.132 78.8284 106.76 78.8284C99.228 78.8284 93.9729 75.8627 90.3819 71.5887L96.7756 65.5702C99.6659 68.7975 102.644 70.542 106.935 70.542C110.439 70.542 112.891 68.5359 112.891 65.483C112.804 65.3958 113.592 60.0751 104.658 60.0751H100.805L99.4032 54.2311L112.891 40.7113L107.461 44.2002H92.9219V36.35H121.299V43.2408L110.702 53.3588C116.307 54.3183 121.913 57.2839 121.913 65.0469ZM95.5494 17.2479C95.5494 13.4972 98.2646 10.4444 102.118 10.4444H106.41L105.271 10.9677C105.359 21.3474 105.096 22.6558 105.709 24.1386H102.118C98.3521 24.1386 95.5494 21.0857 95.5494 17.2479ZM102.118 25.8831H105.972V24.4875C106.235 25.0108 106.585 25.3597 107.198 25.6214C108.424 26.232 107.549 25.7959 142.495 25.9703V8.69987H140.656V24.1386C140.656 24.1386 108.687 24.2258 108.074 23.9642C107.549 23.7025 107.373 23.1791 107.286 22.6558C107.111 21.6963 107.198 21.6963 107.198 8.69987H102.206C97.126 8.69987 93.6226 12.7122 93.6226 17.3351V17.4223C93.535 21.8708 97.0384 25.8831 102.118 25.8831ZM155.983 6.86815H151.954C152.042 5.55978 151.429 3.03027 154.144 3.03027H155.458V4.33864C154.231 4.42587 153.443 3.98974 153.443 4.94921V5.38533H155.983V6.86815ZM160.713 26.1448C160.187 26.1448 159.749 26.0575 159.224 25.9703L159.749 24.2258C160.625 24.4875 161.676 24.4875 162.114 23.7025C162.64 22.8302 162.464 22.4813 162.464 8.69987H164.304C164.216 21.6091 164.391 21.958 164.129 23.4408C163.691 25.1853 162.64 26.1448 160.713 26.1448ZM107.111 6.86815H105.271V5.03644H107.111V6.86815ZM147.663 13.1483C148.538 11.4911 150.378 10.5316 152.217 10.5316H155.195L154.144 11.0549V19.254C152.655 19.254 151.691 19.4285 150.29 18.9924C148.451 18.3818 147.225 16.9862 147.225 14.98C147.312 14.2822 147.4 13.6717 147.663 13.1483ZM147.663 19.6029C150.027 21.3474 153.356 20.9985 153.531 21.0857L154.144 19.7774C154.056 20.9985 154.494 22.743 153.356 23.6153C152.392 24.3131 150.553 24.3131 149.502 24.0514C149.064 23.9642 148.538 23.7897 147.925 23.528L147.312 25.2725C148.451 25.7086 149.589 26.0575 150.816 26.0575C152.655 26.0575 153.881 25.6214 154.757 24.7492C155.545 23.8769 155.983 22.743 155.983 21.3474V8.69987C153.706 8.78709 151.954 8.43819 149.94 9.22321C144.422 11.0549 144.247 17.2479 147.663 19.6029ZM103.432 6.86815H101.593V5.03644H103.432V6.86815ZM84.3385 8.61264H86.2654V25.7959H84.6889L72.427 10.3571L73.478 12.8866V25.8831H71.5511V8.61264H73.3904L85.1268 23.4408L84.3385 21.3474V8.61264ZM12.4312 25.9703L4.98649 8.61264H7.17611C7.2637 8.87432 13.2195 23.1791 13.8326 24.5747L13.6574 22.6558L19.5256 8.52542H21.6276L14.1829 25.9703H12.4312ZM45.4508 8.61264H47.3777V25.7959H45.4508V8.61264ZM66.3836 17.3351C66.3836 21.2602 63.5809 24.4003 59.6396 24.4003C55.6982 24.4003 52.8079 21.173 52.8079 17.3351V17.2479C52.8079 13.3228 55.6106 10.1827 59.552 10.1827C63.4933 10.1827 66.3836 13.3228 66.3836 17.3351ZM59.6396 8.35097C54.3845 8.35097 50.7935 12.5377 50.7935 17.2479V17.3351C50.7935 22.0452 54.2969 26.1448 59.6396 26.1448C64.9823 26.1448 68.4856 21.958 68.4856 17.2479V17.1606C68.3981 12.4505 64.8947 8.35097 59.6396 8.35097ZM42.2101 21.173C42.2101 24.1386 39.7578 26.0575 36.3419 26.0575C33.6268 26.0575 31.3496 25.1853 29.2475 23.2664L30.4737 21.8708C32.313 23.528 33.9771 24.3131 36.4295 24.3131C38.7943 24.3131 40.2833 23.0919 40.2833 21.3474V21.2602C40.2833 16.4628 29.9482 19.6029 29.9482 13.0611V12.9739C29.9482 10.2699 32.313 8.26374 35.6413 8.26374C38.1812 8.26374 39.9329 8.96154 41.6846 10.3571L40.546 11.8399C36.6047 8.69987 31.8751 9.92101 31.8751 12.7122V12.7994C31.8751 14.4567 32.7509 15.3289 36.6047 16.1139C40.4584 17.1606 42.2101 18.5562 42.2101 21.173ZM26.2697 25.8831H24.3428V8.61264H26.2697V25.8831ZM139.955 27.802H141.794V29.6337H139.955V27.802ZM136.276 27.802H138.116V29.6337H136.276V27.802ZM20.489 70.1931H36.5171V78.1306H5.42441V70.8909C20.927 57.72 26.7076 55.1905 26.7076 49.4337C26.7076 45.9447 24.3428 44.0258 21.1021 44.0258C17.8615 44.0258 15.6719 45.8575 12.5188 49.6082L6.03751 44.3747C10.154 38.7923 14.1829 35.7395 21.7152 35.7395C30.3862 35.7395 36.1668 40.7985 36.1668 48.6487V48.7359C36.1668 58.5051 28.722 61.7324 15.9346 71.9376L14.1829 73.3332L20.489 70.1931ZM159.311 57.3711C159.311 64.5235 154.144 70.3676 146.699 70.3676C139.254 70.3676 133.999 64.4363 133.999 57.1967V57.1095C133.999 49.9571 139.167 44.113 146.612 44.113C154.056 44.113 159.311 50.0443 159.311 57.2839V57.3711ZM146.699 35.6522C133.737 35.6522 124.277 45.4214 124.277 57.2839V57.3711C124.277 69.2337 133.561 78.8284 146.524 78.8284C159.487 78.8284 168.946 69.0592 168.946 57.1967V57.1095C168.946 45.2469 159.662 35.6522 146.699 35.6522Z" fill="#CCCCCC"/>
<path d="M61.654 32.8611L63.7561 34.8673L61.7416 36.9606L59.6396 34.9545" fill="#29367B"/>
<path d="M66.4712 34.9545L68.5732 36.9606L70.5877 34.8673L68.4857 32.8611" fill="#B1AEB3"/>
<path d="M63.4933 37.6585L65.1574 39.2285L66.7339 37.5713L65.0698 36.0012" fill="#D0DA33"/>
<path d="M69.5367 38.5306L71.2008 40.1006L72.7773 38.4433L71.1132 36.8733" fill="#71BA44"/>
<path d="M60.7782 40.188L62.4423 41.7581L64.0188 40.1008L62.3547 38.5308" fill="#D0DA33"/>
<path d="M66.3836 40.3623L68.0477 41.9324L69.6243 40.2751L67.9601 38.7051" fill="#27B8BE"/>
<path d="M64.194 42.2814L65.3326 43.4153L66.4712 42.2814L65.3326 41.1475" fill="#71BA44"/>
<path d="M68.5732 43.1535L69.7118 44.2874L70.8504 43.1535L69.7118 42.0195" fill="#58B75E"/>
<path d="M78.2076 34.3438L81.7986 33.646L82.4993 37.2222L78.9083 37.92L78.2076 34.3438Z" fill="#3088C8"/>
<path d="M73.478 35.8266L76.3683 35.3032L76.8938 38.1816L74.0035 38.705L73.478 35.8266Z" fill="#1E3871"/>
<path d="M79.0835 39.839L81.9738 39.3157L82.4993 42.1941L79.609 42.7174L79.0835 39.839Z" fill="#27B8BE"/>
<path d="M75.0545 40.2752L77.3317 39.8391L77.7697 42.107L75.4925 42.5431L75.0545 40.2752Z" fill="#D0DA33"/>
<path d="M79.4338 44.5492L81.711 44.113L82.1489 46.3809L79.8717 46.7298L79.4338 44.5492Z" fill="#B1AEB3"/>
<path d="M71.7263 41.1473L74.0035 40.7112L74.4414 42.979L72.1642 43.4151L71.7263 41.1473Z" fill="#27B8BE"/>
<path d="M75.7552 44.1131L78.0324 43.677L78.4703 45.9448L76.1931 46.381L75.7552 44.1131Z" fill="#71BA44"/>
<path d="M72.8649 44.3747L74.4414 44.113L74.7042 45.6831L73.1276 45.9448L72.8649 44.3747Z" fill="#B1AEB3"/>
<path d="M75.9304 47.6892L77.5069 47.4275L77.7697 48.9975L76.1931 49.2592L75.9304 47.6892Z" fill="#58B75E"/>
<path d="M88.9805 46.1191L87.3164 49.3464L90.6447 50.9165L92.2212 47.602" fill="#29367B"/>
<path d="M84.251 44.5491L83.0248 47.1658L85.6523 48.387L86.8785 45.7702" fill="#27B8BE"/>
<path d="M86.4406 51.0911L85.1268 53.7078L87.7544 54.9289L88.9806 52.3122" fill="#71BA44"/>
<path d="M82.9372 49.0847L81.9737 51.1781L84.0758 52.1376L85.0392 50.0442" fill="#D0DA33"/>
<path d="M83.9882 55.1033L82.9372 57.1967L85.0392 58.1561L86.0027 56.0627" fill="#D0DA33"/>
<path d="M79.6089 47.8638L78.6455 49.9572L80.7476 50.9166L81.711 48.8232" fill="#3088C8"/>
<path d="M81.1855 52.6611L80.2221 54.7545L82.3241 55.714L83.2875 53.6206" fill="#B1AEB3"/>
<path d="M78.7331 51.1782L78.0324 52.661L79.5214 53.3588L80.222 51.876" fill="#71BA44"/>
<path d="M78.5579 57.0221L79.2586 55.5393L80.7476 56.3243L80.0469 57.8071L78.5579 57.0221Z" fill="#27B8BE"/>
<path d="M90.7323 61.9067L87.4916 63.6512L89.2433 66.8785L92.484 65.134" fill="#3088C8"/>
<path d="M87.842 57.8945L85.2144 59.2901L86.6158 61.8196L89.2433 60.424" fill="#27B8BE"/>
<path d="M85.7399 64.4363L83.1124 65.8319L84.5137 68.3614L87.1413 66.9658" fill="#27B8BE"/>
<path d="M84.0758 60.8601L82.0613 61.994L83.1999 64.0002L85.2144 62.8663" fill="#29367B"/>
<path d="M81.3607 66.3552L79.3462 67.4891L80.4848 69.4953L82.4993 68.3614" fill="#58B75E"/>
<path d="M82.1489 57.8945L80.1345 59.0284L81.2731 61.0346L83.2875 59.9007" fill="#1E3871"/>
<path d="M80.5724 62.6919L78.5579 63.8258L79.6965 65.832L81.711 64.6981" fill="#D0DA33"/>
<path d="M79.4338 60.0752L78.0324 60.8602L78.8207 62.2558L80.222 61.4708" fill="#B1AEB3"/>
<path d="M77.3317 64.0002L75.9304 64.7853L76.7187 66.1809L78.12 65.3958" fill="#27B8BE"/>
<path d="M78.7331 78.9156L79.171 75.2522L82.8496 75.6883L82.4117 79.3518L78.7331 78.9156Z" fill="#71BA44"/>
<path d="M79.5214 73.4204L79.8717 70.542L82.762 70.8909L82.4993 73.7693L79.5214 73.4204Z" fill="#1E3871"/>
<path d="M74.0035 77.52L74.3538 74.6416L77.2441 74.9905L76.8938 77.8689L74.0035 77.52Z" fill="#27B8BE"/>
<path d="M75.58 72.9844L75.8428 70.7166L78.12 70.9782L77.8572 73.2461L75.58 72.9844Z" fill="#71BA44"/>
<path d="M70.1498 75.8628L70.4125 73.595L72.6897 73.8566L72.427 76.1245L70.1498 75.8628Z" fill="#B1AEB3"/>
<path d="M75.6676 69.4954L75.9304 67.2275L78.2076 67.4892L77.9448 69.7571L75.6676 69.4954Z" fill="#B1AEB3"/>
<path d="M71.6387 72.5481L71.9015 70.2803L74.1787 70.5419L73.9159 72.8098L71.6387 72.5481Z" fill="#71BA44"/>
<path d="M72.9525 69.1465L73.1277 67.5764L74.7042 67.7509L74.6166 69.3209L72.9525 69.1465Z" fill="#B1AEB3"/>
<path d="M68.9236 71.0654L69.0988 69.4954L70.6753 69.6698L70.5001 71.2399L68.9236 71.0654Z" fill="#B1AEB3"/>
<path d="M68.3105 82.4045L65.5953 79.875L63.0554 82.579L65.8581 85.1085" fill="#D0DA33"/>
<path d="M67.8726 31.2038L65.1574 28.6743L62.6175 31.3783L65.3326 33.9078" fill="#71BA44"/>
<path d="M71.2008 78.3922L69.0987 76.386L67.0843 78.5666L69.2739 80.5728" fill="#27B8BE"/>
<path d="M64.2816 78.5667L62.0919 76.5605L60.0775 78.7412L62.2671 80.7473" fill="#71BA44"/>
<path d="M67.2595 75.7756L65.5953 74.2056L64.0188 75.8628L65.6829 77.4329" fill="#3088C8"/>
<path d="M61.1285 74.9905L59.4644 73.4204L57.8878 75.0777L59.552 76.6477" fill="#D0DA33"/>
<path d="M69.4491 73.0715L67.785 71.5015L66.2084 73.1587L67.8726 74.7288" fill="#D0DA33"/>
<path d="M64.3692 73.1589L62.705 71.5889L61.1285 73.2461L62.7926 74.8162" fill="#B1AEB3"/>
<path d="M66.4712 71.2399L65.245 70.106L64.1064 71.2399L65.3326 72.3738" fill="#1E3871"/>
<path d="M62.0919 70.4547L60.8658 69.3208L59.7271 70.4547L60.9533 71.5886" fill="#B1AEB3"/>
<path d="M48.3411 76.5606L51.9321 75.8628L52.6327 79.439L49.0418 80.1368L48.3411 76.5606Z" fill="#3088C8"/>
<path d="M53.8589 75.5139L56.7493 74.9033L57.3624 77.7817L54.472 78.3923L53.8589 75.5139Z" fill="#27B8BE"/>
<path d="M48.1659 71.5888L51.0562 70.9783L51.6693 73.8567L48.779 74.4673L48.1659 71.5888Z" fill="#71BA44"/>
<path d="M52.9831 71.5887L55.2603 71.1526L55.6982 73.4204L53.421 73.8565L52.9831 71.5887Z" fill="#D0DA33"/>
<path d="M56.3113 70.6292L58.5885 70.1931L59.0265 72.461L56.7493 72.8971L56.3113 70.6292Z" fill="#29367B"/>
<path d="M52.1948 67.7508L54.472 67.3147L54.91 69.5825L52.6328 70.0187L52.1948 67.7508Z" fill="#3088C8"/>
<path d="M55.8734 68.0125L57.4499 67.6636L57.8003 69.2336L56.2237 69.5825L55.8734 68.0125Z" fill="#71BA44"/>
<path d="M52.7203 64.7852L54.2969 64.4363L54.6472 66.0063L53.0707 66.3552L52.7203 64.7852Z" fill="#B1AEB3"/>
<path d="M41.6846 67.751L43.1736 64.4364L39.8453 62.9536L38.3564 66.2681" fill="#27B8BE"/>
<path d="M46.4142 69.2337L47.6404 66.5297L44.9253 65.3086L43.6991 68.0126" fill="#D0DA33"/>
<path d="M44.137 62.7791L45.3632 60.0751L42.6481 58.854L41.4219 61.558" fill="#3088C8"/>
<path d="M45.5384 63.7387L46.5018 61.6453L48.6038 62.6047L47.6404 64.6981L45.5384 63.7387Z" fill="#27B8BE"/>
<path d="M50.4431 69.8444L51.4066 67.751L49.3045 66.7915L48.3411 68.8849" fill="#B1AEB3"/>
<path d="M44.3998 57.7201L45.3632 55.6267L47.4652 56.5862L46.5018 58.6796L44.3998 57.7201Z" fill="#29367B"/>
<path d="M48.8666 64.8724L49.83 62.7791L51.9321 63.7385L50.9686 65.8319L48.8666 64.8724Z" fill="#58B75E"/>
<path d="M47.2025 60.1622L48.1659 58.0688L50.268 59.0283L49.3045 61.1217L47.2025 60.1622Z" fill="#D0DA33"/>
<path d="M51.8445 62.5175L52.5452 61.0346L50.9686 60.4241L50.268 61.9069" fill="#1E3871"/>
<path d="M51.1438 58.069L51.8445 56.5862L50.3555 55.8884L49.6549 57.3712" fill="#71BA44"/>
<path d="M39.6702 52.0504L42.8232 50.2187L40.9839 47.0786L37.8309 48.8231" fill="#27B8BE"/>
<path d="M42.6481 55.9755L45.188 54.4926L43.6991 51.9631L41.1591 53.446" fill="#71BA44"/>
<path d="M44.5749 49.3466L47.1149 47.8637L45.7135 45.3342L43.086 46.817" fill="#1E3871"/>
<path d="M46.3266 52.9228L48.3411 51.7889L47.2025 49.7827L45.188 50.9166" fill="#3088C8"/>
<path d="M48.8666 47.4274L50.8811 46.2935L49.7425 44.2874L47.728 45.4213" fill="#71BA44"/>
<path d="M48.3411 55.8012L50.3555 54.6673L49.2169 52.6611L47.2025 53.7951" fill="#27B8BE"/>
<path d="M49.7425 51.0039L51.7569 49.8699L50.6183 47.8638L48.6039 48.9977" fill="#D0DA33"/>
<path d="M50.9686 53.6206L52.37 52.8355L51.5817 51.4399L50.1804 52.225" fill="#B1AEB3"/>
<path d="M53.0707 49.6955L54.472 48.9105L53.5962 47.5149L52.1948 48.2999" fill="#71BA44"/>
<path d="M47.2901 38.0072L47.6404 34.3438L51.319 34.6926L50.9686 38.3561L47.2901 38.0072Z" fill="#71BA44"/>
<path d="M47.3777 42.979L47.728 40.1006L50.6183 40.4495L50.268 43.2407L47.3777 42.979Z" fill="#B1AEB3"/>
<path d="M52.8079 38.7922L53.1583 35.9138L56.0486 36.2627L55.6982 39.1411L52.8079 38.7922Z" fill="#27B8BE"/>
<path d="M52.1072 42.7175L52.37 40.4497L54.6472 40.7114L54.3845 42.9792L52.1072 42.7175Z" fill="#D0DA33"/>
<path d="M57.4499 39.6646L57.7127 37.3967L59.9899 37.6584L59.7271 39.9262L57.4499 39.6646Z" fill="#3088C8"/>
<path d="M52.0197 46.2063L52.2824 43.9385L54.5596 44.2001L54.2969 46.468L52.0197 46.2063Z" fill="#27B8BE"/>
<path d="M56.0486 43.0664L56.3113 40.7986L58.5885 41.0603L58.3258 43.3281L56.0486 43.0664Z" fill="#71BA44"/>
<path d="M55.4355 45.9448L55.6106 44.3748L57.1872 44.5492L57.0996 46.1192L55.4355 45.9448Z" fill="#1E3871"/>
<path d="M59.4644 43.9387L59.6396 42.3687L61.2161 42.5431L61.1285 44.1131L59.4644 43.9387Z" fill="#B1AEB3"/>
<path d="M76.8062 59.2028C74.8794 58.0689 72.1642 57.8073 69.4491 58.7667C68.2229 59.2028 66.9967 59.9879 66.0333 60.7729C65.4202 56.8478 65.6829 53.2716 65.8581 51.5271C67.2595 52.3993 66.8215 54.8416 66.5588 55.5394C68.3105 53.5333 67.4346 51.2654 67.0843 50.7421C66.9967 50.6548 67.4346 50.9165 67.6974 51.3526C68.9236 52.9227 68.3105 54.5799 68.4856 54.5799C69.2739 53.0099 69.0112 51.0037 67.347 49.6081C67.2595 49.5209 67.5222 49.6082 67.6974 49.6954C69.0987 50.2187 69.7994 51.6143 69.7994 52.9227C69.7994 53.1844 70.7629 50.4804 68.4856 49.172C68.0477 48.9104 67.6098 48.7359 67.347 48.7359C67.0843 48.7359 68.5732 48.4742 69.6243 49.172C70.2374 49.6081 70.4125 50.0443 70.4125 49.957C70.2373 48.1253 68.1353 47.4275 66.8215 47.9509C66.6464 48.0381 67.347 47.0786 68.5732 47.1659C68.836 47.1659 69.0112 47.2531 69.1863 47.3403C68.2229 46.2936 66.6464 46.2064 65.8581 47.5148C65.5078 46.9914 65.245 46.2064 65.1574 45.5958C65.1574 45.4214 65.0698 46.4681 64.4567 47.5148C63.6685 46.2936 62.0919 46.2936 61.1285 47.3403C61.7416 47.0786 62.9678 47.1659 63.5809 47.9509C62.2671 47.4275 60.1651 48.1253 59.9899 49.957C60.0775 49.8698 60.1651 49.6081 60.4278 49.3465C61.4788 48.387 63.143 48.6487 62.9678 48.7359C62.3547 48.8231 60.9533 49.4337 60.4278 50.7421C59.9899 51.7888 60.4278 53.2716 60.4278 52.9227C60.4278 51.7015 61.1285 50.1315 62.8802 49.6954C60.1651 52.0504 61.8292 54.9288 61.8292 54.6672C61.7416 53.7077 61.654 52.0504 63.2305 50.8293C62.8802 51.4399 62.0044 53.6205 63.7561 55.6266C63.4933 54.9288 63.0554 52.4866 64.4567 51.6143C64.6319 53.3588 64.8947 57.0222 64.2816 60.8601C62.0919 59.2028 59.9023 58.0689 57.1872 58.2434C55.7858 58.3306 54.472 58.6795 53.5086 59.2901V59.3773C57.5375 58.0689 61.0409 59.639 64.2816 62.3429C62.6174 63.7385 61.1285 65.2213 60.2527 65.7447C60.0775 65.483 59.7271 65.3086 59.2892 65.3958C58.5885 65.5702 58.4134 66.4425 58.7637 66.8786C60.1651 68.2742 62.4423 65.483 65.0698 63.128C67.6098 65.3958 69.9746 68.2742 71.376 66.8786C71.4635 66.7914 71.6387 66.3553 71.5511 66.0936C71.376 65.3958 70.4125 65.1341 69.9746 65.7447C69.0987 65.3086 67.6974 63.8257 65.9457 62.3429C69.2739 59.4645 72.7773 57.9817 76.8062 59.2028C76.8938 59.2028 76.8938 59.2028 76.8062 59.2028Z" fill="#727A82"/>
<path d="M63.9312 97.7561H64.9822V88.3358H63.9312V97.7561ZM36.2543 96.7094L34.5902 92.697C36.2543 91.3015 38.444 91.5631 39.7577 92.697L38.0936 96.7094H36.2543ZM30.4737 96.7094C29.6855 96.7094 29.0724 96.7966 28.2841 96.5349C25.3938 95.6627 26.1821 91.6504 29.4227 91.6504H30.4737V96.7094ZM59.7271 96.7094C58.063 96.6222 56.4865 96.9711 55.6982 95.6627C55.8734 94.9649 55.7858 94.3543 55.7858 91.3015H54.7348V94.8777C54.7348 97.4944 51.5817 97.3199 50.7935 95.7499C50.5307 95.1393 50.7059 94.8777 50.6183 91.3015H49.5673V94.9649C49.5673 96.186 48.8666 96.7094 47.8156 96.7094H45.8011V91.3015H44.7501V96.7094H39.2322L41.0715 92.3482C40.0205 91.4759 38.5316 90.6037 37.1302 90.6037C35.7288 90.6037 34.2399 91.3887 33.1889 92.3482L35.0282 96.7094H31.3496V90.6037H29.6855C27.3207 90.6037 25.3062 91.9993 25.3062 94.1799C25.3062 98.1922 30.211 97.6688 30.2986 97.6688C30.2986 97.7561 30.3862 98.7155 29.8606 99.1517C29.3351 99.5878 28.2841 99.5878 27.671 99.4133C27.4083 99.3261 27.1455 99.2389 26.7952 99.0644L26.4448 100.111C27.1455 100.373 27.7586 100.547 28.4593 100.547C30.4737 100.547 31.4372 99.5878 31.4372 97.8433V97.6688C48.6914 97.5816 48.1659 97.9305 49.2169 97.32C49.6549 97.1455 49.9176 96.7966 50.1804 96.4477C50.4431 96.8838 50.7935 97.2327 51.2314 97.4072C52.1948 97.9305 53.5962 97.8433 54.3845 97.4072C54.8224 97.2327 55.1727 96.8838 55.4355 96.3605C55.8734 97.0583 56.4865 97.4944 57.7127 97.5816H60.7782V88.1614H59.7271V96.7094ZM154.407 96.186C153.443 98.3666 150.29 98.4539 149.327 96.186C149.064 95.4882 149.064 94.7032 149.327 94.0926C150.465 91.3015 154.582 92.0865 154.582 95.1393C154.669 95.4882 154.582 95.9244 154.407 96.186ZM144.247 96.186C143.458 98.0177 141.006 98.3666 139.692 97.0583C138.641 96.0116 138.641 94.2671 139.692 93.2204C140.481 92.3482 141.794 92.1737 142.758 92.6098C144.247 93.2204 144.772 94.8777 144.247 96.186ZM118.584 96.7094C117.796 96.7094 117.183 96.7966 116.395 96.5349C113.592 95.6627 114.293 91.6504 117.533 91.6504H118.584V96.7094ZM159.049 96.7094H155.458C156.596 94.2671 154.844 91.3015 151.954 91.3015C149.327 91.3015 147.4 94.0054 148.538 96.7094H145.298C146.436 94.2671 144.772 91.3015 141.794 91.3015C139.167 91.3015 137.24 94.0054 138.379 96.7094H135.05V88.3358H133.999V96.7094H130.671C130.583 95.6627 130.934 94.0054 129.97 93.0459C129.357 92.3482 128.657 92.1737 127.781 92.1737H123.139L125.153 88.4231H123.664L121.65 92.1737C121.737 92.6098 121.825 92.9587 122.088 93.2204C127.343 93.3076 127.693 93.1332 128.306 93.3948C128.832 93.5693 129.094 94.0054 129.182 94.4415C129.27 94.9649 129.27 95.401 129.27 96.7966H119.548V90.6909H117.884C115.081 90.6909 113.504 92.3482 113.504 94.2671C113.504 96.6222 115.431 97.8433 117.884 97.8433H138.816C140.393 99.5006 143.021 99.3261 144.422 97.8433H149.064C150.64 99.5006 153.18 99.4133 154.669 97.8433H160.012V88.4231H158.961V96.7094H159.049ZM163.165 97.7561H164.216V88.3358H163.165V97.7561ZM85.3896 100.024H86.4406V98.9772H85.3896V100.024ZM95.7246 96.7094L94.0605 92.697C95.7246 91.3015 97.8266 91.4759 99.228 92.697L97.5639 96.7094H95.7246ZM103.169 96.7094H98.7025L100.542 92.3482C99.4907 91.3887 98.0018 90.6037 96.6004 90.6037C95.1991 90.6037 93.7101 91.3887 92.6591 92.3482L94.4984 96.7094H90.5571V90.6037H89.5061V97.9305C89.5061 98.89 89.4185 99.5006 88.5426 99.5006C88.3674 99.5006 88.1923 99.5006 88.0171 99.4133L87.7544 100.46C88.6302 100.722 89.6812 100.634 90.2067 99.8495C90.6447 99.1517 90.6447 98.1922 90.6447 97.6688H104.22V88.2486H103.169V96.7094ZM23.1166 91.5631C21.978 90.2548 20.5766 90.7781 20.1387 90.6037V91.6504C20.927 91.6504 21.2773 91.5631 21.8028 91.8248C22.2407 91.9993 22.5911 92.3482 22.6787 92.8715C22.8538 93.3948 22.7663 93.831 22.7663 96.7094H17.8615V97.7561H23.9049C23.9049 93.7437 23.9924 93.3948 23.7297 92.4354C23.4669 92.0865 23.2918 91.8248 23.1166 91.5631ZM81.5358 100.024H82.5868V98.9772H81.5358V100.024ZM75.1421 96.7094C74.3538 96.7094 73.7407 96.7966 72.9525 96.5349C70.1498 95.6627 70.8504 91.6504 74.0911 91.6504H75.1421V96.7094ZM86.4406 90.6037H85.3896V96.7094H81.4482V90.6037H80.3972V96.7094H76.1931V90.6037C74.8794 90.6037 72.8649 90.342 71.3759 91.6504C69.1863 93.4821 69.7994 97.7561 74.529 97.7561H86.4406V90.6037ZM79.6965 100.024H80.7475V98.9772H79.6965V100.024ZM9.19057 88.3358H8.05196V89.3825H9.10298V88.3358H9.19057ZM117.796 88.3358H116.657V89.3825H117.708V88.3358H117.796ZM76.1931 88.3358H75.1421V89.3825H76.1931V88.3358ZM15.4091 100.024H16.4601V98.9772H15.4091V100.024ZM74.3538 88.3358H73.3028V89.3825H74.3538V88.3358ZM11.0299 88.3358H9.97884V89.3825H11.0299V88.3358ZM13.5698 100.024H14.6208V98.9772H13.5698V100.024ZM9.97884 96.7094C9.19057 96.7094 8.57747 96.7966 7.78921 96.5349C4.98649 95.6627 5.68717 91.6504 8.92781 91.6504H9.97884V96.7094ZM16.285 90.6037H15.2339V96.7094H11.0299V90.6037C9.80366 90.6037 8.75264 90.5164 7.61404 90.8653C6.6506 91.2142 5.77475 91.8248 5.33683 92.7843C4.8989 93.7437 4.98649 94.9649 5.42441 95.8371C6.21268 97.2327 7.78921 97.7561 9.45333 97.7561H16.3725L16.285 90.6037ZM107.286 97.7561H108.337V88.3358H107.286V97.7561ZM119.635 88.3358H118.584V89.3825H119.635V88.3358Z" fill="#CCCCCC"/>
<path d="M6.03751 104.647H7.35128V108.397L10.9423 104.647H12.6064L9.45333 107.874L12.694 112.148H11.1174L8.57747 108.746L7.43887 109.967V112.148H6.03751" fill="#CCCCCC"/>
<path d="M13.9202 104.647H15.2339V112.148H13.9202V104.647Z" fill="#CCCCCC"/>
<path d="M17.336 104.647H18.5622L22.5911 109.793V104.647H23.9049V112.148H22.7663L18.6498 106.827V112.148H17.336" fill="#CCCCCC"/>
<path d="M25.4814 108.398C25.4814 106.304 27.0579 104.472 29.3351 104.472C30.6489 104.472 31.4372 104.821 32.2254 105.519L31.3496 106.479C29.3351 104.734 26.7952 105.955 26.7952 108.31C26.7952 109.88 27.8462 111.014 29.3351 111.014C30.0358 111.014 30.6489 110.753 31.1744 110.491V109.095H29.2476V107.961H32.5758V111.101C29.8606 113.369 25.4814 112.235 25.4814 108.398Z" fill="#CCCCCC"/>
<path d="M37.2178 110.927C40.7212 110.927 40.7212 105.868 37.2178 105.868H35.7288V110.927H37.2178ZM34.4151 104.647H37.2178C42.5605 104.647 42.5605 112.148 37.2178 112.148H34.4151V104.647Z" fill="#CCCCCC"/>
<path d="M48.9542 108.398C48.9542 106.915 47.9032 105.694 46.4142 105.694C44.9253 105.694 43.8743 106.915 43.8743 108.31C43.8743 109.793 44.9253 111.014 46.4142 111.014C47.9032 111.014 48.9542 109.88 48.9542 108.398ZM42.4729 108.398C42.4729 106.304 44.137 104.472 46.4142 104.472C48.6914 104.472 50.3555 106.217 50.3555 108.31C50.3555 110.404 48.6914 112.148 46.4142 112.148C44.0494 112.235 42.4729 110.491 42.4729 108.398Z" fill="#CCCCCC"/>
<path d="M51.9321 104.647H53.3334L55.6106 108.223L57.8879 104.647H59.2892V112.148H57.9754V106.74L55.6106 110.229L53.2459 106.74V112.061H51.9321" fill="#CCCCCC"/>
<path d="M70.6753 108.398C70.6753 106.915 69.6243 105.694 68.1353 105.694C66.6464 105.694 65.5953 106.915 65.5953 108.31C65.5953 109.793 66.6464 111.014 68.1353 111.014C69.6243 111.014 70.6753 109.88 70.6753 108.398ZM64.194 108.398C64.194 106.304 65.8581 104.472 68.1353 104.472C70.4125 104.472 72.0766 106.217 72.0766 108.31C72.0766 110.404 70.4125 112.148 68.1353 112.148C65.8581 112.235 64.194 110.491 64.194 108.398Z" fill="#CCCCCC"/>
<path d="M73.7408 104.647H79.3462V105.868H75.0545V107.874H78.8207V109.095H75.0545V112.148H73.7408" fill="#CCCCCC"/>
<path d="M83.5503 111.014L84.3386 110.055C85.0392 110.665 85.7399 111.014 86.7034 111.014C87.4916 111.014 88.0171 110.665 88.0171 110.055C88.0171 108.397 83.813 109.531 83.813 106.653C83.813 104.385 87.0537 103.774 89.1557 105.432L88.4551 106.391C86.7034 105.083 85.2144 105.606 85.2144 106.478C85.2144 108.136 89.4185 107.089 89.4185 109.88C89.3309 112.584 85.6523 112.846 83.5503 111.014Z" fill="#CCCCCC"/>
<path d="M95.2867 109.182L93.9729 106.217L92.6591 109.182H95.2867ZM93.4474 104.56H94.6736L98.0018 112.061H96.6004L95.8122 110.229H92.2212L91.4329 112.061H90.1191L93.4474 104.56Z" fill="#CCCCCC"/>
<path d="M98.7901 108.921V104.647H100.104V108.921C100.104 110.316 100.805 111.101 102.031 111.101C103.169 111.101 103.958 110.404 103.958 109.008V104.734H105.271V109.008C105.271 111.276 103.958 112.41 102.031 112.41C100.016 112.235 98.7901 111.101 98.7901 108.921Z" fill="#CCCCCC"/>
<path d="M109.913 110.927C113.417 110.927 113.417 105.868 109.913 105.868H108.424V110.927H109.913ZM107.111 104.647H109.913C115.256 104.647 115.256 112.148 109.913 112.148H107.111V104.647Z" fill="#CCCCCC"/>
<path d="M115.606 104.647H116.92V112.148H115.606V104.647Z" fill="#CCCCCC"/>
<path d="M126.73 109.182L125.416 106.217L124.102 109.182H126.73ZM124.89 104.56H126.117L129.445 112.061H128.043L127.255 110.229H123.664L122.876 112.061H121.562L124.89 104.56Z" fill="#CCCCCC"/>
<path d="M133.912 108.31C134.875 108.31 135.488 107.787 135.488 107.089C135.488 106.304 134.875 105.868 133.912 105.868H131.985V108.397L133.912 108.31ZM130.671 104.647H133.999C135.576 104.647 136.802 105.432 136.802 107.002C136.802 107.089 136.977 108.746 134.963 109.27L136.977 112.148H135.401L133.561 109.531C133.386 109.531 131.81 109.531 131.897 109.531V112.148H130.671V104.647Z" fill="#CCCCCC"/>
<path d="M143.283 109.182L141.97 106.217L140.656 109.182H143.283ZM141.356 104.56H142.583L145.911 112.061H144.509L143.721 110.229H140.13L139.43 112.148H138.116L141.356 104.56Z" fill="#CCCCCC"/>
<path d="M150.64 110.927C151.516 110.927 152.129 110.578 152.129 109.88C152.129 109.27 151.604 108.834 150.553 108.834H148.451V110.927H150.64ZM150.29 107.787C151.166 107.787 151.691 107.438 151.691 106.74C151.691 106.13 151.254 105.781 150.378 105.781H148.451V107.787H150.29ZM147.137 104.647H150.553C151.867 104.647 153.005 105.257 153.005 106.566C153.005 106.653 153.18 107.612 151.954 108.223C152.83 108.485 153.443 109.008 153.443 110.055C153.443 111.363 152.305 112.148 150.64 112.148H147.137V104.647Z" fill="#CCCCCC"/>
<path d="M155.02 104.647H156.333V112.148H155.02V104.647Z" fill="#CCCCCC"/>
<path d="M162.902 109.182L161.589 106.217L160.275 109.182H162.902ZM160.975 104.56H162.202L165.53 112.061H164.129L163.34 110.229H159.749L158.961 112.061H157.647L160.975 104.56Z" fill="#CCCCCC"/>
</svg>
