<svg width="93" height="93" viewBox="0 0 93 93" fill="none" xmlns="http://www.w3.org/2000/svg">
<g filter="url(#filter0_d_1_1591)">
<rect x="4.00439" y="0.034668" width="84" height="84" rx="42" fill="#07D68B"/>
</g>
<g clip-path="url(#clip0_1_1591)">
<path fill-rule="evenodd" clip-rule="evenodd" d="M62.5413 43.0596L59.6506 32.8133L59.3865 32.2473L58.8583 31.6813L58.33 31.391L57.8165 31.1153L49.6728 29.1125L44.948 28.2707H44.6985V27.9805H44.1703L43.3779 28.2707L42.6002 28.5465L41.8079 29.1125L41.2796 29.693L38.9172 34.2356L38.389 35.6579L38.6531 36.7899L39.1814 38.2122L39.9737 39.0685L40.7514 39.3587H42.3361L43.1138 39.0685L43.6421 38.5025L44.1703 37.6462L46.7968 33.1036L57.8165 39.6345L58.5942 40.215L59.3865 40.781V41.347H59.6506L62.013 45.6139L62.2772 45.0479L62.5413 44.4819L62.7907 43.6256L62.5413 43.0596ZM31.3165 51.303L32.0942 49.8808L29.2182 48.1682L28.6899 47.6022L28.4258 48.1682L27.8976 49.3147L28.1617 50.4468L28.4258 51.303L29.2182 52.1593L29.9959 52.4351H31.0524L31.3165 51.303ZM22.9087 27.9805L21.3386 31.1153L20.2968 34.5259L19.7686 37.9365L19.5045 41.6373L19.7686 44.7576L20.2968 47.8925L20.8104 50.737L21.8669 53.2913L24.7575 54.1476L31.0524 30.5348L22.9087 27.9805ZM69.1002 27.9805L60.9566 30.5348L67.5155 54.1476L70.1421 53.2913L71.1985 50.737L71.7121 47.8925L72.2403 44.7576L72.5045 41.6373L72.2403 37.9365L71.7121 34.5259L70.6703 31.1153L69.1002 27.9805V27.9805ZM37.0831 46.7459H36.2907L35.7772 47.0362L35.2489 47.6022L34.9848 48.1682L32.8865 52.1593L32.3583 53.0011L32.6224 54.1476L32.8865 55.0039L33.6789 55.5699L34.1924 55.8456L34.9848 56.1359L35.513 55.8456L36.2907 55.5699V56.1359L36.5548 56.9922L36.819 57.5582L37.6113 58.1242L38.1396 58.4145H39.4455L39.9737 58.1242L40.4873 57.5582L40.7514 56.9922L41.2796 56.4262L41.5438 57.5582L41.8079 58.1242L42.3361 58.6902L42.8497 58.9805H44.1703L44.6985 58.6902L45.2121 58.1242L45.7403 57.5582L46.7968 55.5699L47.0609 54.7136V53.5816L46.5327 52.7253L46.0045 51.869L45.2121 51.5788H44.6985L43.9062 51.869L43.3779 52.1593L43.1138 51.303V50.737L42.6002 50.171L42.072 49.5905L41.5438 49.3147H39.9737L39.4455 49.5905V49.0245L39.1814 48.1682L38.6531 47.6022L38.1396 47.0362L37.6113 46.7459H37.0831ZM60.1789 51.0128L59.6506 51.303L58.8583 51.5788L58.33 51.303L57.5524 51.0128V51.869L57.2882 52.4351L57.0241 53.0011L56.4959 53.5816L55.7182 53.8573L55.1899 54.1476L53.8694 53.5816L53.3558 53.2913L53.0917 52.7253L52.5634 52.1593L52.2993 53.2913L52.0352 53.8573L51.5216 54.4234L50.7293 54.7136H48.631V53.0011L47.8386 51.5788L46.7968 50.4468L45.7403 50.171L44.6985 49.8808H44.4344L43.9062 48.7487L42.8497 48.1682L41.8079 47.6022H40.4873L39.9737 46.4702L38.9172 45.6139L38.1396 45.3236L37.0831 45.0479L36.0413 45.3236L34.9848 45.6139L34.1924 46.4702L33.4148 47.3264L32.8865 48.4585L29.9959 46.7459L29.4676 46.1799L29.2182 45.6139L28.9541 45.0479L29.2182 44.1916L31.5806 34.5259L31.83 33.9599L32.3583 33.3793L32.8865 33.1036H33.4148L37.8754 32.8133L37.6113 33.3793L37.0831 34.5259L36.819 35.3822V36.5142L37.0831 37.3705L37.3472 38.2122L37.8754 39.0685L38.389 39.9248L39.1814 40.4908L40.2378 41.0568H42.8497L43.9062 40.4908L44.948 39.6345L45.4762 38.5025L47.3104 35.3822L57.2882 41.0568L57.5524 41.347L58.0806 41.9131V42.2033H58.33L61.2207 47.3264L61.4848 48.4585V49.3147L60.9566 50.4468L60.1789 51.0128Z" fill="white"/>
</g>
<defs>
<filter id="filter0_d_1_1591" x="0.00439453" y="0.034668" width="92" height="92" filterUnits="userSpaceOnUse" color-interpolation-filters="sRGB">
<feFlood flood-opacity="0" result="BackgroundImageFix"/>
<feColorMatrix in="SourceAlpha" type="matrix" values="0 0 0 0 0 0 0 0 0 0 0 0 0 0 0 0 0 0 127 0" result="hardAlpha"/>
<feOffset dy="4"/>
<feGaussianBlur stdDeviation="2"/>
<feComposite in2="hardAlpha" operator="out"/>
<feColorMatrix type="matrix" values="0 0 0 0 0 0 0 0 0 0 0 0 0 0 0 0 0 0 0.25 0"/>
<feBlend mode="normal" in2="BackgroundImageFix" result="effect1_dropShadow_1_1591"/>
<feBlend mode="normal" in="SourceGraphic" in2="effect1_dropShadow_1_1591" result="shape"/>
</filter>
<clipPath id="clip0_1_1591">
<rect width="53" height="31" fill="white" transform="translate(19.5045 27.9805)"/>
</clipPath>
</defs>
</svg>
